<svg xmlns="http://www.w3.org/2000/svg" width="600" height="600">
                <rect width="100%" height="100%" fill="#000"/><polygon points="42.00000000000001,42.00000000000001 157.49927242439762,99.0609237406276 208.55651472306775,157.24379988246187" fill="#aba5fe" stroke="#000" stroke-width="1"/><polygon points="42.00000000000001,42.00000000000001 157.49927242439762,99.0609237406276 276.6540147399209,101.13273979460617" fill="#f34e9e" stroke="#000" stroke-width="1"/><polygon points="42.00000000000001,42.00000000000001 208.55651472306775,157.24379988246187 276.6540147399209,101.13273979460617" fill="#aba5fe" stroke="#000" stroke-width="1"/><polygon points="42.00000000000001,558 99.33333333333334,558 159.258316776123,505.8523680645443" fill="#82c0ff" stroke="#000" stroke-width="1"/><polygon points="42.00000000000001,558 99.33333333333334,558 101.58915724060105,387.41627972399897" fill="#aba5fe" stroke="#000" stroke-width="1"/><polygon points="42.00000000000001,558 101.58915724060105,387.41627972399897 159.258316776123,505.8523680645443" fill="#fed07c" stroke="#000" stroke-width="1"/><polygon points="500.6666666666667,42.00000000000001 558,42.00000000000001 558,99.33333333333334" fill="#aba5fe" stroke="#000" stroke-width="1"/><polygon points="443.33333333333337,42.00000000000001 500.6666666666667,42.00000000000001 558,42.00000000000001" fill="#fed07c" stroke="#000" stroke-width="1"/><polygon points="382.2912436142192,215.85282521274905 500.6666666666667,42.00000000000001 558,42.00000000000001" fill="#f34e9e" stroke="#000" stroke-width="1"/><polygon points="443.33333333333337,42.00000000000001 558,42.00000000000001 558,99.33333333333334" fill="#fed07c" stroke="#000" stroke-width="1"/><polygon points="382.2912436142192,215.85282521274905 558,42.00000000000001 558,558" fill="#fe86b0" stroke="#000" stroke-width="1"/><polygon points="443.33333333333337,558 444.4065120398521,504.71813743181946 558,558" fill="#fed07c" stroke="#000" stroke-width="1"/><polygon points="382.3687601107147,386.0272552845551 443.33333333333337,558 558,558" fill="#f34e9e" stroke="#000" stroke-width="1"/><polygon points="382.3687601107147,386.0272552845551 444.4065120398521,504.71813743181946 558,558" fill="#fed07c" stroke="#000" stroke-width="1"/><polygon points="382.2912436142192,215.85282521274905 382.3687601107147,386.0272552845551 558,558" fill="#7464f2" stroke="#000" stroke-width="1"/><polygon points="273.2226526328219,268.2778504907755 274.8963294906091,212.00669292298258 382.2912436142192,215.85282521274905" fill="#7464f2" stroke="#000" stroke-width="1"/><polygon points="269.6256838855589,157.92581229035284 274.8963294906091,212.00669292298258 382.2912436142192,215.85282521274905" fill="#f34e9e" stroke="#000" stroke-width="1"/><polygon points="274.8963294906091,212.00669292298258 276.6540147399209,101.13273979460617 382.2912436142192,215.85282521274905" fill="#82c0ff" stroke="#000" stroke-width="1"/><polygon points="269.6256838855589,157.92581229035284 273.2226526328219,268.2778504907755 382.2912436142192,215.85282521274905" fill="#aba5fe" stroke="#000" stroke-width="1"/><polygon points="273.2226526328219,268.2778504907755 382.2912436142192,215.85282521274905 382.3687601107147,386.0272552845551" fill="#aba5fe" stroke="#000" stroke-width="1"/><polygon points="269.6256838855589,157.92581229035284 276.6540147399209,101.13273979460617 382.2912436142192,215.85282521274905" fill="#82c0ff" stroke="#000" stroke-width="1"/><polygon points="101.58915724060105,387.41627972399897 159.258316776123,505.8523680645443 212.73135896932814,385.97649949899346" fill="#fe86b0" stroke="#000" stroke-width="1"/><polygon points="42.00000000000001,328.6666666666667 101.58915724060105,387.41627972399897 212.73135896932814,385.97649949899346" fill="#fe86b0" stroke="#000" stroke-width="1"/><polygon points="42.00000000000001,328.6666666666667 159.24042470846172,266.37599035975353 212.73135896932814,385.97649949899346" fill="#82c0ff" stroke="#000" stroke-width="1"/><polygon points="42.00000000000001,328.6666666666667 159.258316776123,505.8523680645443 212.73135896932814,385.97649949899346" fill="#fed07c" stroke="#000" stroke-width="1"/><polygon points="212.73135896932814,385.97649949899346 382.3687601107147,386.0272552845551 444.4065120398521,504.71813743181946" fill="#7464f2" stroke="#000" stroke-width="1"/><polygon points="269.6256838855589,157.92581229035284 273.2226526328219,268.2778504907755 274.8963294906091,212.00669292298258" fill="#fe86b0" stroke="#000" stroke-width="1"/><polygon points="159.24042470846172,266.37599035975353 273.2226526328219,268.2778504907755 274.8963294906091,212.00669292298258" fill="#f34e9e" stroke="#000" stroke-width="1"/><polygon points="208.55651472306775,157.24379988246187 269.6256838855589,157.92581229035284 274.8963294906091,212.00669292298258" fill="#7464f2" stroke="#000" stroke-width="1"/><polygon points="269.6256838855589,157.92581229035284 274.8963294906091,212.00669292298258 276.6540147399209,101.13273979460617" fill="#0e93f9" stroke="#000" stroke-width="1"/><polygon points="159.24042470846172,266.37599035975353 208.55651472306775,157.24379988246187 274.8963294906091,212.00669292298258" fill="#fe86b0" stroke="#000" stroke-width="1"/><polygon points="208.55651472306775,157.24379988246187 274.8963294906091,212.00669292298258 276.6540147399209,101.13273979460617" fill="#82c0ff" stroke="#000" stroke-width="1"/><polygon points="443.33333333333337,42.00000000000001 500.6666666666667,42.00000000000001 558,99.33333333333334" fill="#aba5fe" stroke="#000" stroke-width="1"/><polygon points="42.00000000000001,328.6666666666667 101.58915724060105,387.41627972399897 159.258316776123,505.8523680645443" fill="#aba5fe" stroke="#000" stroke-width="1"/><polygon points="99.33333333333334,558 101.58915724060105,387.41627972399897 159.258316776123,505.8523680645443" fill="#aba5fe" stroke="#000" stroke-width="1"/><polygon points="208.55651472306775,157.24379988246187 269.6256838855589,157.92581229035284 276.6540147399209,101.13273979460617" fill="#fe86b0" stroke="#000" stroke-width="1"/><polygon points="157.49927242439762,99.0609237406276 269.6256838855589,157.92581229035284 276.6540147399209,101.13273979460617" fill="#f34e9e" stroke="#000" stroke-width="1"/><polygon points="157.49927242439762,99.0609237406276 208.55651472306775,157.24379988246187 269.6256838855589,157.92581229035284" fill="#fed07c" stroke="#000" stroke-width="1"/><polygon points="382.3687601107147,386.0272552845551 443.33333333333337,558 444.4065120398521,504.71813743181946" fill="#fed07c" stroke="#000" stroke-width="1"/><polygon points="157.49927242439762,99.0609237406276 208.55651472306775,157.24379988246187 276.6540147399209,101.13273979460617" fill="#f34e9e" stroke="#000" stroke-width="1"/></svg>