<svg xmlns="http://www.w3.org/2000/svg" width="600" height="600">
                <rect width="100%" height="100%" fill="#000"/><polygon points="84.00000000000001,84.00000000000001 84.00000000000001,165 165,84.00000000000001" fill="#eab6f1" stroke="#000" stroke-width="1"/><polygon points="84.00000000000001,84.00000000000001 142.0684533498718,166.38474743115708 165,84.00000000000001" fill="#555894" stroke="#000" stroke-width="1"/><polygon points="84.00000000000001,84.00000000000001 84.00000000000001,192 165,84.00000000000001" fill="#eab6f1" stroke="#000" stroke-width="1"/><polygon points="84.00000000000001,84.00000000000001 84.00000000000001,165 142.0684533498718,166.38474743115708" fill="#eab6f1" stroke="#000" stroke-width="1"/><polygon points="84.00000000000001,84.00000000000001 84.00000000000001,165 84.00000000000001,192" fill="#eab6f1" stroke="#000" stroke-width="1"/><polygon points="84.00000000000001,84.00000000000001 84.00000000000001,192 142.0684533498718,166.38474743115708" fill="#e68d99" stroke="#000" stroke-width="1"/><polygon points="84.00000000000001,516 112.08650790681055,383.58590741005486 134.00949165185912,412.0353388883993" fill="#555894" stroke="#000" stroke-width="1"/><polygon points="84.00000000000001,516 134.00949165185912,412.0353388883993 135.28826228959522,381.4152777630443" fill="#9478b1" stroke="#000" stroke-width="1"/><polygon points="84.00000000000001,516 134.00949165185912,412.0353388883993 165.36701587161411,352.20261150135195" fill="#555894" stroke="#000" stroke-width="1"/><polygon points="84.00000000000001,516 112.08650790681055,383.58590741005486 135.28826228959522,381.4152777630443" fill="#9699da" stroke="#000" stroke-width="1"/><polygon points="84.00000000000001,516 112.08650790681055,383.58590741005486 165.36701587161411,352.20261150135195" fill="#9699da" stroke="#000" stroke-width="1"/><polygon points="84.00000000000001,516 135.28826228959522,381.4152777630443 165.36701587161411,352.20261150135195" fill="#eab6f1" stroke="#000" stroke-width="1"/><polygon points="84.00000000000001,516 218.65385857375347,460.7362266611171 246,516" fill="#e68d99" stroke="#000" stroke-width="1"/><polygon points="463.68954834369634,111.30560643946623 489,84.00000000000001 516,84.00000000000001" fill="#eab6f1" stroke="#000" stroke-width="1"/><polygon points="433.59214123122945,112.1693090661497 489,84.00000000000001 516,84.00000000000001" fill="#eab6f1" stroke="#000" stroke-width="1"/><polygon points="381,84.00000000000001 489,84.00000000000001 516,84.00000000000001" fill="#eab6f1" stroke="#000" stroke-width="1"/><polygon points="433.59214123122945,112.1693090661497 463.68954834369634,111.30560643946623 516,84.00000000000001" fill="#96a4e0" stroke="#000" stroke-width="1"/><polygon points="381,84.00000000000001 463.68954834369634,111.30560643946623 516,84.00000000000001" fill="#9699da" stroke="#000" stroke-width="1"/><polygon points="381,84.00000000000001 433.59214123122945,112.1693090661497 516,84.00000000000001" fill="#eab6f1" stroke="#000" stroke-width="1"/><polygon points="357.37069326072486,111.52536534880161 433.59214123122945,112.1693090661497 516,84.00000000000001" fill="#7d72cc" stroke="#000" stroke-width="1"/><polygon points="379.0740821035101,192.84964667376673 433.59214123122945,112.1693090661497 516,84.00000000000001" fill="#eab6f1" stroke="#000" stroke-width="1"/><polygon points="357.37069326072486,111.52536534880161 381,84.00000000000001 516,84.00000000000001" fill="#96a4e0" stroke="#000" stroke-width="1"/><polygon points="379.0740821035101,192.84964667376673 381,84.00000000000001 516,84.00000000000001" fill="#9699da" stroke="#000" stroke-width="1"/><polygon points="357.37069326072486,111.52536534880161 379.0740821035101,192.84964667376673 516,84.00000000000001" fill="#eab6f1" stroke="#000" stroke-width="1"/><polygon points="405.74419621165606,245.35869022310536 516,84.00000000000001 516,246" fill="#96a4e0" stroke="#000" stroke-width="1"/><polygon points="379.0740821035101,192.84964667376673 405.74419621165606,245.35869022310536 516,84.00000000000001" fill="#96a4e0" stroke="#000" stroke-width="1"/><polygon points="462,516 516,489 516,516" fill="#9478b1" stroke="#000" stroke-width="1"/><polygon points="434.0795937909281,486.0639467769706 516,489 516,516" fill="#9478b1" stroke="#000" stroke-width="1"/><polygon points="409.20746294589947,485.3684947884896 516,489 516,516" fill="#555894" stroke="#000" stroke-width="1"/><polygon points="516,381 516,489 516,516" fill="#96a4e0" stroke="#000" stroke-width="1"/><polygon points="485.9066750571653,379.4191064799511 516,489 516,516" fill="#555894" stroke="#000" stroke-width="1"/><polygon points="434.0795937909281,486.0639467769706 462,516 516,516" fill="#9478b1" stroke="#000" stroke-width="1"/><polygon points="409.20746294589947,485.3684947884896 462,516 516,516" fill="#7d72cc" stroke="#000" stroke-width="1"/><polygon points="462,516 516,381 516,516" fill="#9699da" stroke="#000" stroke-width="1"/><polygon points="462,516 485.9066750571653,379.4191064799511 516,516" fill="#555894" stroke="#000" stroke-width="1"/><polygon points="409.20746294589947,485.3684947884896 434.0795937909281,486.0639467769706 516,516" fill="#9478b1" stroke="#000" stroke-width="1"/><polygon points="434.0795937909281,486.0639467769706 516,381 516,516" fill="#eab6f1" stroke="#000" stroke-width="1"/><polygon points="434.0795937909281,486.0639467769706 485.9066750571653,379.4191064799511 516,516" fill="#555894" stroke="#000" stroke-width="1"/><polygon points="485.9066750571653,379.4191064799511 516,381 516,516" fill="#e68d99" stroke="#000" stroke-width="1"/><polygon points="219.96094082998724,376.99693113581407 248.3000849335564,355.76012317316173 270.5202546426326,349.9609959361199" fill="#555894" stroke="#000" stroke-width="1"/><polygon points="218.33467623673994,328.2351991123218 248.3000849335564,355.76012317316173 270.5202546426326,349.9609959361199" fill="#9699da" stroke="#000" stroke-width="1"/><polygon points="248.3000849335564,355.76012317316173 270.5202546426326,349.9609959361199 301.32810814257215,271.9704734318411" fill="#7d72cc" stroke="#000" stroke-width="1"/><polygon points="218.33467623673994,328.2351991123218 219.96094082998724,376.99693113581407 248.3000849335564,355.76012317316173" fill="#555894" stroke="#000" stroke-width="1"/><polygon points="193.1197674689482,323.9832780943651 219.96094082998724,376.99693113581407 248.3000849335564,355.76012317316173" fill="#555894" stroke="#000" stroke-width="1"/><polygon points="187.73972684518955,304.00238148836854 219.96094082998724,376.99693113581407 248.3000849335564,355.76012317316173" fill="#eab6f1" stroke="#000" stroke-width="1"/><polygon points="165.36701587161411,352.20261150135195 219.96094082998724,376.99693113581407 248.3000849335564,355.76012317316173" fill="#eab6f1" stroke="#000" stroke-width="1"/><polygon points="193.1197674689482,323.9832780943651 218.33467623673994,328.2351991123218 248.3000849335564,355.76012317316173" fill="#e68d99" stroke="#000" stroke-width="1"/><polygon points="187.73972684518955,304.00238148836854 218.33467623673994,328.2351991123218 248.3000849335564,355.76012317316173" fill="#7d72cc" stroke="#000" stroke-width="1"/><polygon points="165.36701587161411,352.20261150135195 218.33467623673994,328.2351991123218 248.3000849335564,355.76012317316173" fill="#9699da" stroke="#000" stroke-width="1"/><polygon points="218.33467623673994,328.2351991123218 248.3000849335564,355.76012317316173 301.32810814257215,271.9704734318411" fill="#555894" stroke="#000" stroke-width="1"/><polygon points="187.73972684518955,304.00238148836854 193.1197674689482,323.9832780943651 248.3000849335564,355.76012317316173" fill="#96a4e0" stroke="#000" stroke-width="1"/><polygon points="165.36701587161411,352.20261150135195 193.1197674689482,323.9832780943651 248.3000849335564,355.76012317316173" fill="#555894" stroke="#000" stroke-width="1"/><polygon points="165.36701587161411,352.20261150135195 187.73972684518955,304.00238148836854 248.3000849335564,355.76012317316173" fill="#7d72cc" stroke="#000" stroke-width="1"/><polygon points="187.73972684518955,304.00238148836854 193.1197674689482,323.9832780943651 218.33467623673994,328.2351991123218" fill="#9699da" stroke="#000" stroke-width="1"/><polygon points="112.08650790681055,383.58590741005486 193.1197674689482,323.9832780943651 218.33467623673994,328.2351991123218" fill="#e68d99" stroke="#000" stroke-width="1"/><polygon points="165.36701587161411,352.20261150135195 193.1197674689482,323.9832780943651 218.33467623673994,328.2351991123218" fill="#96a4e0" stroke="#000" stroke-width="1"/><polygon points="193.1197674689482,323.9832780943651 218.33467623673994,328.2351991123218 219.96094082998724,376.99693113581407" fill="#7d72cc" stroke="#000" stroke-width="1"/><polygon points="112.08650790681055,383.58590741005486 187.73972684518955,304.00238148836854 218.33467623673994,328.2351991123218" fill="#9699da" stroke="#000" stroke-width="1"/><polygon points="165.36701587161411,352.20261150135195 187.73972684518955,304.00238148836854 218.33467623673994,328.2351991123218" fill="#7d72cc" stroke="#000" stroke-width="1"/><polygon points="187.73972684518955,304.00238148836854 218.33467623673994,328.2351991123218 219.96094082998724,376.99693113581407" fill="#9478b1" stroke="#000" stroke-width="1"/><polygon points="218.33467623673994,328.2351991123218 270.5202546426326,349.9609959361199 301.32810814257215,271.9704734318411" fill="#7d72cc" stroke="#000" stroke-width="1"/><polygon points="218.33467623673994,328.2351991123218 219.96094082998724,376.99693113581407 270.5202546426326,349.9609959361199" fill="#555894" stroke="#000" stroke-width="1"/><polygon points="112.08650790681055,383.58590741005486 165.36701587161411,352.20261150135195 218.33467623673994,328.2351991123218" fill="#555894" stroke="#000" stroke-width="1"/><polygon points="112.08650790681055,383.58590741005486 218.33467623673994,328.2351991123218 219.96094082998724,376.99693113581407" fill="#9699da" stroke="#000" stroke-width="1"/><polygon points="165.36701587161411,352.20261150135195 218.33467623673994,328.2351991123218 219.96094082998724,376.99693113581407" fill="#e68d99" stroke="#000" stroke-width="1"/><polygon points="352.5828062274313,331.02452654303363 382.13719708676217,379.2630204372307 403.74028751328365,380.28500394785766" fill="#e68d99" stroke="#000" stroke-width="1"/><polygon points="331.26460753837205,411.91124263410774 382.13719708676217,379.2630204372307 403.74028751328365,380.28500394785766" fill="#96a4e0" stroke="#000" stroke-width="1"/><polygon points="351.17872002434785,433.1144374093488 382.13719708676217,379.2630204372307 403.74028751328365,380.28500394785766" fill="#9478b1" stroke="#000" stroke-width="1"/><polygon points="382.13719708676217,379.2630204372307 403.74028751328365,380.28500394785766 485.9066750571653,379.4191064799511" fill="#7d72cc" stroke="#000" stroke-width="1"/><polygon points="382.13719708676217,379.2630204372307 403.74028751328365,380.28500394785766 409.20746294589947,485.3684947884896" fill="#96a4e0" stroke="#000" stroke-width="1"/><polygon points="382.13719708676217,379.2630204372307 403.74028751328365,380.28500394785766 516,381" fill="#9699da" stroke="#000" stroke-width="1"/><polygon points="331.26460753837205,411.91124263410774 352.5828062274313,331.02452654303363 382.13719708676217,379.2630204372307" fill="#7d72cc" stroke="#000" stroke-width="1"/><polygon points="350.93817575945053,299.71211475914333 352.5828062274313,331.02452654303363 382.13719708676217,379.2630204372307" fill="#9478b1" stroke="#000" stroke-width="1"/><polygon points="331.26460753837205,411.91124263410774 351.17872002434785,433.1144374093488 382.13719708676217,379.2630204372307" fill="#96a4e0" stroke="#000" stroke-width="1"/><polygon points="331.26460753837205,411.91124263410774 379.2479308283265,463.09957355375934 382.13719708676217,379.2630204372307" fill="#e68d99" stroke="#000" stroke-width="1"/><polygon points="331.26460753837205,411.91124263410774 382.13719708676217,379.2630204372307 409.20746294589947,485.3684947884896" fill="#eab6f1" stroke="#000" stroke-width="1"/><polygon points="351.17872002434785,433.1144374093488 379.2479308283265,463.09957355375934 382.13719708676217,379.2630204372307" fill="#9478b1" stroke="#000" stroke-width="1"/><polygon points="351.17872002434785,433.1144374093488 382.13719708676217,379.2630204372307 409.20746294589947,485.3684947884896" fill="#9478b1" stroke="#000" stroke-width="1"/><polygon points="379.2479308283265,463.09957355375934 382.13719708676217,379.2630204372307 409.20746294589947,485.3684947884896" fill="#9478b1" stroke="#000" stroke-width="1"/><polygon points="382.13719708676217,379.2630204372307 485.9066750571653,379.4191064799511 516,381" fill="#e68d99" stroke="#000" stroke-width="1"/><polygon points="270.5202546426326,349.9609959361199 275.1058679934413,269.8845823303304 301.32810814257215,271.9704734318411" fill="#9478b1" stroke="#000" stroke-width="1"/><polygon points="270.5202546426326,349.9609959361199 275.1058679934413,269.8845823303304 352.5828062274313,331.02452654303363" fill="#9699da" stroke="#000" stroke-width="1"/><polygon points="270.5202546426326,349.9609959361199 301.32810814257215,271.9704734318411 352.5828062274313,331.02452654303363" fill="#9699da" stroke="#000" stroke-width="1"/><polygon points="296.34807907231,106.85553628140528 357.37069326072486,111.52536534880161 381,84.00000000000001" fill="#e68d99" stroke="#000" stroke-width="1"/><polygon points="299.1753775221987,136.71836181557268 357.37069326072486,111.52536534880161 381,84.00000000000001" fill="#9478b1" stroke="#000" stroke-width="1"/><polygon points="357.37069326072486,111.52536534880161 381,84.00000000000001 433.59214123122945,112.1693090661497" fill="#9478b1" stroke="#000" stroke-width="1"/><polygon points="357.37069326072486,111.52536534880161 379.0740821035101,192.84964667376673 381,84.00000000000001" fill="#eab6f1" stroke="#000" stroke-width="1"/><polygon points="296.34807907231,106.85553628140528 299.1753775221987,136.71836181557268 357.37069326072486,111.52536534880161" fill="#555894" stroke="#000" stroke-width="1"/><polygon points="296.34807907231,106.85553628140528 302.2452839586239,193.87679197462694 357.37069326072486,111.52536534880161" fill="#9478b1" stroke="#000" stroke-width="1"/><polygon points="299.1753775221987,136.71836181557268 302.2452839586239,193.87679197462694 357.37069326072486,111.52536534880161" fill="#555894" stroke="#000" stroke-width="1"/><polygon points="299.1753775221987,136.71836181557268 357.37069326072486,111.52536534880161 379.0740821035101,192.84964667376673" fill="#7d72cc" stroke="#000" stroke-width="1"/><polygon points="357.37069326072486,111.52536534880161 379.0740821035101,192.84964667376673 433.59214123122945,112.1693090661497" fill="#e68d99" stroke="#000" stroke-width="1"/><polygon points="302.2452839586239,193.87679197462694 357.37069326072486,111.52536534880161 379.0740821035101,192.84964667376673" fill="#9478b1" stroke="#000" stroke-width="1"/><polygon points="84.00000000000001,192 135.49816080750816,222.79249608447162 167.63090055071896,269.4205976800322" fill="#96a4e0" stroke="#000" stroke-width="1"/><polygon points="135.49816080750816,222.79249608447162 139.30278427758904,299.6918426268682 167.63090055071896,269.4205976800322" fill="#eab6f1" stroke="#000" stroke-width="1"/><polygon points="135.49816080750816,222.79249608447162 167.63090055071896,269.4205976800322 215.11551598125382,187.9475125740379" fill="#9699da" stroke="#000" stroke-width="1"/><polygon points="135.49816080750816,222.79249608447162 167.63090055071896,269.4205976800322 187.73972684518955,304.00238148836854" fill="#7d72cc" stroke="#000" stroke-width="1"/><polygon points="84.00000000000001,192 135.49816080750816,222.79249608447162 142.0684533498718,166.38474743115708" fill="#96a4e0" stroke="#000" stroke-width="1"/><polygon points="84.00000000000001,165 135.49816080750816,222.79249608447162 142.0684533498718,166.38474743115708" fill="#7d72cc" stroke="#000" stroke-width="1"/><polygon points="135.49816080750816,222.79249608447162 142.0684533498718,166.38474743115708 215.11551598125382,187.9475125740379" fill="#e68d99" stroke="#000" stroke-width="1"/><polygon points="84.00000000000001,192 135.49816080750816,222.79249608447162 139.30278427758904,299.6918426268682" fill="#eab6f1" stroke="#000" stroke-width="1"/><polygon points="84.00000000000001,165 84.00000000000001,192 135.49816080750816,222.79249608447162" fill="#9478b1" stroke="#000" stroke-width="1"/><polygon points="84.00000000000001,192 135.49816080750816,222.79249608447162 215.11551598125382,187.9475125740379" fill="#7d72cc" stroke="#000" stroke-width="1"/><polygon points="135.49816080750816,222.79249608447162 139.30278427758904,299.6918426268682 187.73972684518955,304.00238148836854" fill="#9478b1" stroke="#000" stroke-width="1"/><polygon points="135.49816080750816,222.79249608447162 139.30278427758904,299.6918426268682 193.1197674689482,323.9832780943651" fill="#555894" stroke="#000" stroke-width="1"/><polygon points="135.49816080750816,222.79249608447162 187.73972684518955,304.00238148836854 193.1197674689482,323.9832780943651" fill="#9478b1" stroke="#000" stroke-width="1"/><polygon points="463.44549488403965,273.5157113952303 516,246 516,300" fill="#96a4e0" stroke="#000" stroke-width="1"/><polygon points="439.2421763862544,270.13135948026473 516,246 516,300" fill="#555894" stroke="#000" stroke-width="1"/><polygon points="490.4821819271742,323.5134457904853 516,246 516,300" fill="#96a4e0" stroke="#000" stroke-width="1"/><polygon points="405.74419621165606,245.35869022310536 516,246 516,300" fill="#7d72cc" stroke="#000" stroke-width="1"/><polygon points="439.2421763862544,270.13135948026473 463.44549488403965,273.5157113952303 516,246" fill="#555894" stroke="#000" stroke-width="1"/><polygon points="463.44549488403965,273.5157113952303 490.4821819271742,323.5134457904853 516,246" fill="#e68d99" stroke="#000" stroke-width="1"/><polygon points="405.74419621165606,245.35869022310536 463.44549488403965,273.5157113952303 516,246" fill="#9478b1" stroke="#000" stroke-width="1"/><polygon points="439.2421763862544,270.13135948026473 490.4821819271742,323.5134457904853 516,246" fill="#96a4e0" stroke="#000" stroke-width="1"/><polygon points="405.74419621165606,245.35869022310536 439.2421763862544,270.13135948026473 516,246" fill="#96a4e0" stroke="#000" stroke-width="1"/><polygon points="351.17872002434785,433.1144374093488 379.2479308283265,463.09957355375934 409.20746294589947,485.3684947884896" fill="#9478b1" stroke="#000" stroke-width="1"/><polygon points="354,516 379.2479308283265,463.09957355375934 409.20746294589947,485.3684947884896" fill="#eab6f1" stroke="#000" stroke-width="1"/><polygon points="379.2479308283265,463.09957355375934 409.20746294589947,485.3684947884896 434.0795937909281,486.0639467769706" fill="#7d72cc" stroke="#000" stroke-width="1"/><polygon points="331.26460753837205,411.91124263410774 379.2479308283265,463.09957355375934 409.20746294589947,485.3684947884896" fill="#9478b1" stroke="#000" stroke-width="1"/><polygon points="379.2479308283265,463.09957355375934 409.20746294589947,485.3684947884896 516,489" fill="#96a4e0" stroke="#000" stroke-width="1"/><polygon points="379.2479308283265,463.09957355375934 409.20746294589947,485.3684947884896 462,516" fill="#7d72cc" stroke="#000" stroke-width="1"/><polygon points="351.17872002434785,433.1144374093488 354,516 379.2479308283265,463.09957355375934" fill="#eab6f1" stroke="#000" stroke-width="1"/><polygon points="331.26460753837205,411.91124263410774 351.17872002434785,433.1144374093488 379.2479308283265,463.09957355375934" fill="#e68d99" stroke="#000" stroke-width="1"/><polygon points="300.98750861031976,458.33963460856563 351.17872002434785,433.1144374093488 379.2479308283265,463.09957355375934" fill="#9699da" stroke="#000" stroke-width="1"/><polygon points="351.17872002434785,433.1144374093488 379.2479308283265,463.09957355375934 462,516" fill="#e68d99" stroke="#000" stroke-width="1"/><polygon points="354,516 379.2479308283265,463.09957355375934 434.0795937909281,486.0639467769706" fill="#9478b1" stroke="#000" stroke-width="1"/><polygon points="300.98750861031976,458.33963460856563 354,516 379.2479308283265,463.09957355375934" fill="#555894" stroke="#000" stroke-width="1"/><polygon points="354,516 379.2479308283265,463.09957355375934 462,516" fill="#9478b1" stroke="#000" stroke-width="1"/><polygon points="379.2479308283265,463.09957355375934 434.0795937909281,486.0639467769706 516,489" fill="#9478b1" stroke="#000" stroke-width="1"/><polygon points="379.2479308283265,463.09957355375934 434.0795937909281,486.0639467769706 462,516" fill="#7d72cc" stroke="#000" stroke-width="1"/><polygon points="300.98750861031976,458.33963460856563 331.26460753837205,411.91124263410774 379.2479308283265,463.09957355375934" fill="#9478b1" stroke="#000" stroke-width="1"/><polygon points="379.2479308283265,463.09957355375934 462,516 516,489" fill="#eab6f1" stroke="#000" stroke-width="1"/><polygon points="379.0740821035101,192.84964667376673 405.74419621165606,245.35869022310536 439.2421763862544,270.13135948026473" fill="#7d72cc" stroke="#000" stroke-width="1"/><polygon points="349.6886321625768,270.83974873292806 405.74419621165606,245.35869022310536 439.2421763862544,270.13135948026473" fill="#7d72cc" stroke="#000" stroke-width="1"/><polygon points="405.74419621165606,245.35869022310536 439.2421763862544,270.13135948026473 463.44549488403965,273.5157113952303" fill="#9478b1" stroke="#000" stroke-width="1"/><polygon points="350.93817575945053,299.71211475914333 405.74419621165606,245.35869022310536 439.2421763862544,270.13135948026473" fill="#eab6f1" stroke="#000" stroke-width="1"/><polygon points="352.5828062274313,331.02452654303363 405.74419621165606,245.35869022310536 439.2421763862544,270.13135948026473" fill="#9478b1" stroke="#000" stroke-width="1"/><polygon points="405.74419621165606,245.35869022310536 439.2421763862544,270.13135948026473 516,300" fill="#eab6f1" stroke="#000" stroke-width="1"/><polygon points="349.6886321625768,270.83974873292806 379.0740821035101,192.84964667376673 405.74419621165606,245.35869022310536" fill="#96a4e0" stroke="#000" stroke-width="1"/><polygon points="349.6886321625768,270.83974873292806 405.74419621165606,245.35869022310536 463.44549488403965,273.5157113952303" fill="#96a4e0" stroke="#000" stroke-width="1"/><polygon points="349.6886321625768,270.83974873292806 350.93817575945053,299.71211475914333 405.74419621165606,245.35869022310536" fill="#555894" stroke="#000" stroke-width="1"/><polygon points="349.6886321625768,270.83974873292806 352.5828062274313,331.02452654303363 405.74419621165606,245.35869022310536" fill="#9478b1" stroke="#000" stroke-width="1"/><polygon points="301.32810814257215,271.9704734318411 349.6886321625768,270.83974873292806 405.74419621165606,245.35869022310536" fill="#555894" stroke="#000" stroke-width="1"/><polygon points="350.93817575945053,299.71211475914333 405.74419621165606,245.35869022310536 463.44549488403965,273.5157113952303" fill="#7d72cc" stroke="#000" stroke-width="1"/><polygon points="405.74419621165606,245.35869022310536 463.44549488403965,273.5157113952303 516,300" fill="#555894" stroke="#000" stroke-width="1"/><polygon points="350.93817575945053,299.71211475914333 352.5828062274313,331.02452654303363 405.74419621165606,245.35869022310536" fill="#9478b1" stroke="#000" stroke-width="1"/><polygon points="301.32810814257215,271.9704734318411 350.93817575945053,299.71211475914333 405.74419621165606,245.35869022310536" fill="#555894" stroke="#000" stroke-width="1"/><polygon points="301.32810814257215,271.9704734318411 352.5828062274313,331.02452654303363 405.74419621165606,245.35869022310536" fill="#e68d99" stroke="#000" stroke-width="1"/><polygon points="112.08650790681055,383.58590741005486 134.00949165185912,412.0353388883993 135.28826228959522,381.4152777630443" fill="#eab6f1" stroke="#000" stroke-width="1"/><polygon points="112.08650790681055,383.58590741005486 135.28826228959522,381.4152777630443 165.36701587161411,352.20261150135195" fill="#eab6f1" stroke="#000" stroke-width="1"/><polygon points="112.08650790681055,383.58590741005486 135.28826228959522,381.4152777630443 139.30278427758904,299.6918426268682" fill="#96a4e0" stroke="#000" stroke-width="1"/><polygon points="112.08650790681055,383.58590741005486 135.28826228959522,381.4152777630443 193.1197674689482,323.9832780943651" fill="#e68d99" stroke="#000" stroke-width="1"/><polygon points="112.08650790681055,383.58590741005486 135.28826228959522,381.4152777630443 219.96094082998724,376.99693113581407" fill="#9478b1" stroke="#000" stroke-width="1"/><polygon points="112.08650790681055,383.58590741005486 135.28826228959522,381.4152777630443 187.73972684518955,304.00238148836854" fill="#9699da" stroke="#000" stroke-width="1"/><polygon points="112.08650790681055,383.58590741005486 134.00949165185912,412.0353388883993 165.36701587161411,352.20261150135195" fill="#7d72cc" stroke="#000" stroke-width="1"/><polygon points="112.08650790681055,383.58590741005486 134.00949165185912,412.0353388883993 219.96094082998724,376.99693113581407" fill="#eab6f1" stroke="#000" stroke-width="1"/><polygon points="112.08650790681055,383.58590741005486 139.30278427758904,299.6918426268682 165.36701587161411,352.20261150135195" fill="#eab6f1" stroke="#000" stroke-width="1"/><polygon points="112.08650790681055,383.58590741005486 165.36701587161411,352.20261150135195 193.1197674689482,323.9832780943651" fill="#eab6f1" stroke="#000" stroke-width="1"/><polygon points="112.08650790681055,383.58590741005486 165.36701587161411,352.20261150135195 219.96094082998724,376.99693113581407" fill="#555894" stroke="#000" stroke-width="1"/><polygon points="112.08650790681055,383.58590741005486 165.36701587161411,352.20261150135195 187.73972684518955,304.00238148836854" fill="#96a4e0" stroke="#000" stroke-width="1"/><polygon points="112.08650790681055,383.58590741005486 139.30278427758904,299.6918426268682 193.1197674689482,323.9832780943651" fill="#555894" stroke="#000" stroke-width="1"/><polygon points="112.08650790681055,383.58590741005486 139.30278427758904,299.6918426268682 187.73972684518955,304.00238148836854" fill="#7d72cc" stroke="#000" stroke-width="1"/><polygon points="112.08650790681055,383.58590741005486 193.1197674689482,323.9832780943651 219.96094082998724,376.99693113581407" fill="#96a4e0" stroke="#000" stroke-width="1"/><polygon points="112.08650790681055,383.58590741005486 187.73972684518955,304.00238148836854 193.1197674689482,323.9832780943651" fill="#eab6f1" stroke="#000" stroke-width="1"/><polygon points="112.08650790681055,383.58590741005486 187.73972684518955,304.00238148836854 219.96094082998724,376.99693113581407" fill="#7d72cc" stroke="#000" stroke-width="1"/><polygon points="439.2421763862544,270.13135948026473 463.44549488403965,273.5157113952303 490.4821819271742,323.5134457904853" fill="#555894" stroke="#000" stroke-width="1"/><polygon points="439.2421763862544,270.13135948026473 463.44549488403965,273.5157113952303 516,300" fill="#e68d99" stroke="#000" stroke-width="1"/><polygon points="439.2421763862544,270.13135948026473 463.44549488403965,273.5157113952303 485.9066750571653,379.4191064799511" fill="#e68d99" stroke="#000" stroke-width="1"/><polygon points="349.6886321625768,270.83974873292806 439.2421763862544,270.13135948026473 463.44549488403965,273.5157113952303" fill="#9478b1" stroke="#000" stroke-width="1"/><polygon points="350.93817575945053,299.71211475914333 439.2421763862544,270.13135948026473 463.44549488403965,273.5157113952303" fill="#9699da" stroke="#000" stroke-width="1"/><polygon points="463.44549488403965,273.5157113952303 490.4821819271742,323.5134457904853 516,300" fill="#7d72cc" stroke="#000" stroke-width="1"/><polygon points="463.44549488403965,273.5157113952303 485.9066750571653,379.4191064799511 490.4821819271742,323.5134457904853" fill="#96a4e0" stroke="#000" stroke-width="1"/><polygon points="463.44549488403965,273.5157113952303 490.4821819271742,323.5134457904853 516,381" fill="#9478b1" stroke="#000" stroke-width="1"/><polygon points="463.44549488403965,273.5157113952303 485.9066750571653,379.4191064799511 516,300" fill="#9478b1" stroke="#000" stroke-width="1"/><polygon points="463.44549488403965,273.5157113952303 516,300 516,381" fill="#9699da" stroke="#000" stroke-width="1"/><polygon points="463.44549488403965,273.5157113952303 485.9066750571653,379.4191064799511 516,381" fill="#eab6f1" stroke="#000" stroke-width="1"/><polygon points="349.6886321625768,270.83974873292806 350.93817575945053,299.71211475914333 463.44549488403965,273.5157113952303" fill="#9478b1" stroke="#000" stroke-width="1"/><polygon points="275.1058679934413,269.8845823303304 301.32810814257215,271.9704734318411 349.6886321625768,270.83974873292806" fill="#9699da" stroke="#000" stroke-width="1"/><polygon points="275.1058679934413,269.8845823303304 275.2217483400254,215.9376321778471 301.32810814257215,271.9704734318411" fill="#eab6f1" stroke="#000" stroke-width="1"/><polygon points="275.1058679934413,269.8845823303304 301.32810814257215,271.9704734318411 302.2452839586239,193.87679197462694" fill="#eab6f1" stroke="#000" stroke-width="1"/><polygon points="275.1058679934413,269.8845823303304 301.32810814257215,271.9704734318411 352.5828062274313,331.02452654303363" fill="#e68d99" stroke="#000" stroke-width="1"/><polygon points="301.32810814257215,271.9704734318411 349.6886321625768,270.83974873292806 350.93817575945053,299.71211475914333" fill="#9478b1" stroke="#000" stroke-width="1"/><polygon points="275.2217483400254,215.9376321778471 301.32810814257215,271.9704734318411 349.6886321625768,270.83974873292806" fill="#7d72cc" stroke="#000" stroke-width="1"/><polygon points="301.32810814257215,271.9704734318411 302.2452839586239,193.87679197462694 349.6886321625768,270.83974873292806" fill="#9699da" stroke="#000" stroke-width="1"/><polygon points="301.32810814257215,271.9704734318411 349.6886321625768,270.83974873292806 352.5828062274313,331.02452654303363" fill="#e68d99" stroke="#000" stroke-width="1"/><polygon points="301.32810814257215,271.9704734318411 350.93817575945053,299.71211475914333 352.5828062274313,331.02452654303363" fill="#7d72cc" stroke="#000" stroke-width="1"/><polygon points="275.2217483400254,215.9376321778471 301.32810814257215,271.9704734318411 302.2452839586239,193.87679197462694" fill="#7d72cc" stroke="#000" stroke-width="1"/><polygon points="275.1058679934413,269.8845823303304 275.2217483400254,215.9376321778471 302.2452839586239,193.87679197462694" fill="#7d72cc" stroke="#000" stroke-width="1"/><polygon points="215.11551598125382,187.9475125740379 275.2217483400254,215.9376321778471 302.2452839586239,193.87679197462694" fill="#eab6f1" stroke="#000" stroke-width="1"/><polygon points="275.2217483400254,215.9376321778471 302.2452839586239,193.87679197462694 379.0740821035101,192.84964667376673" fill="#7d72cc" stroke="#000" stroke-width="1"/><polygon points="275.2217483400254,215.9376321778471 299.1753775221987,136.71836181557268 302.2452839586239,193.87679197462694" fill="#eab6f1" stroke="#000" stroke-width="1"/><polygon points="275.2217483400254,215.9376321778471 302.2452839586239,193.87679197462694 349.6886321625768,270.83974873292806" fill="#9699da" stroke="#000" stroke-width="1"/><polygon points="275.2217483400254,215.9376321778471 296.34807907231,106.85553628140528 302.2452839586239,193.87679197462694" fill="#555894" stroke="#000" stroke-width="1"/><polygon points="275.1058679934413,269.8845823303304 275.2217483400254,215.9376321778471 349.6886321625768,270.83974873292806" fill="#eab6f1" stroke="#000" stroke-width="1"/><polygon points="215.11551598125382,187.9475125740379 275.2217483400254,215.9376321778471 299.1753775221987,136.71836181557268" fill="#96a4e0" stroke="#000" stroke-width="1"/><polygon points="215.11551598125382,187.9475125740379 275.2217483400254,215.9376321778471 296.34807907231,106.85553628140528" fill="#96a4e0" stroke="#000" stroke-width="1"/><polygon points="275.2217483400254,215.9376321778471 299.1753775221987,136.71836181557268 379.0740821035101,192.84964667376673" fill="#7d72cc" stroke="#000" stroke-width="1"/><polygon points="275.2217483400254,215.9376321778471 349.6886321625768,270.83974873292806 379.0740821035101,192.84964667376673" fill="#9478b1" stroke="#000" stroke-width="1"/><polygon points="275.2217483400254,215.9376321778471 296.34807907231,106.85553628140528 299.1753775221987,136.71836181557268" fill="#9478b1" stroke="#000" stroke-width="1"/><polygon points="275.1058679934413,269.8845823303304 302.2452839586239,193.87679197462694 349.6886321625768,270.83974873292806" fill="#eab6f1" stroke="#000" stroke-width="1"/><polygon points="275.1058679934413,269.8845823303304 349.6886321625768,270.83974873292806 352.5828062274313,331.02452654303363" fill="#555894" stroke="#000" stroke-width="1"/><polygon points="165,84.00000000000001 192,84.00000000000001 194.22755046636186,108.22978849184551" fill="#e68d99" stroke="#000" stroke-width="1"/><polygon points="165,84.00000000000001 192,84.00000000000001 215.49486928865346,108.4782634969503" fill="#e68d99" stroke="#000" stroke-width="1"/><polygon points="142.0684533498718,166.38474743115708 165,84.00000000000001 192,84.00000000000001" fill="#9699da" stroke="#000" stroke-width="1"/><polygon points="165,84.00000000000001 192,84.00000000000001 296.34807907231,106.85553628140528" fill="#7d72cc" stroke="#000" stroke-width="1"/><polygon points="165,84.00000000000001 194.22755046636186,108.22978849184551 215.49486928865346,108.4782634969503" fill="#eab6f1" stroke="#000" stroke-width="1"/><polygon points="142.0684533498718,166.38474743115708 165,84.00000000000001 194.22755046636186,108.22978849184551" fill="#eab6f1" stroke="#000" stroke-width="1"/><polygon points="165,84.00000000000001 194.22755046636186,108.22978849184551 215.11551598125382,187.9475125740379" fill="#9699da" stroke="#000" stroke-width="1"/><polygon points="165,84.00000000000001 194.22755046636186,108.22978849184551 296.34807907231,106.85553628140528" fill="#e68d99" stroke="#000" stroke-width="1"/><polygon points="142.0684533498718,166.38474743115708 165,84.00000000000001 215.49486928865346,108.4782634969503" fill="#7d72cc" stroke="#000" stroke-width="1"/><polygon points="165,84.00000000000001 215.11551598125382,187.9475125740379 215.49486928865346,108.4782634969503" fill="#e68d99" stroke="#000" stroke-width="1"/><polygon points="165,84.00000000000001 215.49486928865346,108.4782634969503 296.34807907231,106.85553628140528" fill="#9478b1" stroke="#000" stroke-width="1"/><polygon points="84.00000000000001,165 142.0684533498718,166.38474743115708 165,84.00000000000001" fill="#9478b1" stroke="#000" stroke-width="1"/><polygon points="142.0684533498718,166.38474743115708 165,84.00000000000001 215.11551598125382,187.9475125740379" fill="#9478b1" stroke="#000" stroke-width="1"/><polygon points="84.00000000000001,192 142.0684533498718,166.38474743115708 165,84.00000000000001" fill="#555894" stroke="#000" stroke-width="1"/><polygon points="84.00000000000001,165 84.00000000000001,192 165,84.00000000000001" fill="#96a4e0" stroke="#000" stroke-width="1"/><polygon points="165,84.00000000000001 215.11551598125382,187.9475125740379 296.34807907231,106.85553628140528" fill="#9478b1" stroke="#000" stroke-width="1"/><polygon points="84.00000000000001,192 165,84.00000000000001 215.11551598125382,187.9475125740379" fill="#eab6f1" stroke="#000" stroke-width="1"/><polygon points="135.28826228959522,381.4152777630443 165.36701587161411,352.20261150135195 193.1197674689482,323.9832780943651" fill="#96a4e0" stroke="#000" stroke-width="1"/><polygon points="165.36701587161411,352.20261150135195 187.73972684518955,304.00238148836854 193.1197674689482,323.9832780943651" fill="#7d72cc" stroke="#000" stroke-width="1"/><polygon points="139.30278427758904,299.6918426268682 165.36701587161411,352.20261150135195 193.1197674689482,323.9832780943651" fill="#9478b1" stroke="#000" stroke-width="1"/><polygon points="165.36701587161411,352.20261150135195 193.1197674689482,323.9832780943651 219.96094082998724,376.99693113581407" fill="#9478b1" stroke="#000" stroke-width="1"/><polygon points="135.28826228959522,381.4152777630443 165.36701587161411,352.20261150135195 187.73972684518955,304.00238148836854" fill="#7d72cc" stroke="#000" stroke-width="1"/><polygon points="135.28826228959522,381.4152777630443 139.30278427758904,299.6918426268682 165.36701587161411,352.20261150135195" fill="#555894" stroke="#000" stroke-width="1"/><polygon points="134.00949165185912,412.0353388883993 135.28826228959522,381.4152777630443 165.36701587161411,352.20261150135195" fill="#7d72cc" stroke="#000" stroke-width="1"/><polygon points="135.28826228959522,381.4152777630443 165.36701587161411,352.20261150135195 219.96094082998724,376.99693113581407" fill="#eab6f1" stroke="#000" stroke-width="1"/><polygon points="139.30278427758904,299.6918426268682 165.36701587161411,352.20261150135195 187.73972684518955,304.00238148836854" fill="#e68d99" stroke="#000" stroke-width="1"/><polygon points="165.36701587161411,352.20261150135195 187.73972684518955,304.00238148836854 219.96094082998724,376.99693113581407" fill="#9699da" stroke="#000" stroke-width="1"/><polygon points="134.00949165185912,412.0353388883993 165.36701587161411,352.20261150135195 219.96094082998724,376.99693113581407" fill="#eab6f1" stroke="#000" stroke-width="1"/><polygon points="485.9066750571653,379.4191064799511 490.4821819271742,323.5134457904853 516,381" fill="#7d72cc" stroke="#000" stroke-width="1"/><polygon points="403.74028751328365,380.28500394785766 485.9066750571653,379.4191064799511 516,381" fill="#eab6f1" stroke="#000" stroke-width="1"/><polygon points="485.9066750571653,379.4191064799511 516,300 516,381" fill="#eab6f1" stroke="#000" stroke-width="1"/><polygon points="485.9066750571653,379.4191064799511 516,381 516,489" fill="#9699da" stroke="#000" stroke-width="1"/><polygon points="434.0795937909281,486.0639467769706 485.9066750571653,379.4191064799511 516,381" fill="#96a4e0" stroke="#000" stroke-width="1"/><polygon points="462,516 485.9066750571653,379.4191064799511 516,381" fill="#9699da" stroke="#000" stroke-width="1"/><polygon points="485.9066750571653,379.4191064799511 490.4821819271742,323.5134457904853 516,300" fill="#9478b1" stroke="#000" stroke-width="1"/><polygon points="439.2421763862544,270.13135948026473 485.9066750571653,379.4191064799511 490.4821819271742,323.5134457904853" fill="#555894" stroke="#000" stroke-width="1"/><polygon points="439.2421763862544,270.13135948026473 485.9066750571653,379.4191064799511 516,300" fill="#7d72cc" stroke="#000" stroke-width="1"/><polygon points="434.0795937909281,486.0639467769706 485.9066750571653,379.4191064799511 516,489" fill="#9699da" stroke="#000" stroke-width="1"/><polygon points="462,516 485.9066750571653,379.4191064799511 516,489" fill="#96a4e0" stroke="#000" stroke-width="1"/><polygon points="434.0795937909281,486.0639467769706 462,516 485.9066750571653,379.4191064799511" fill="#eab6f1" stroke="#000" stroke-width="1"/><polygon points="84.00000000000001,165 84.00000000000001,192 142.0684533498718,166.38474743115708" fill="#e68d99" stroke="#000" stroke-width="1"/><polygon points="134.00949165185912,412.0353388883993 135.28826228959522,381.4152777630443 219.96094082998724,376.99693113581407" fill="#e68d99" stroke="#000" stroke-width="1"/><polygon points="300,516 300.98750861031976,458.33963460856563 354,516" fill="#eab6f1" stroke="#000" stroke-width="1"/><polygon points="246,516 300,516 354,516" fill="#96a4e0" stroke="#000" stroke-width="1"/><polygon points="351.17872002434785,433.1144374093488 354,516 409.20746294589947,485.3684947884896" fill="#7d72cc" stroke="#000" stroke-width="1"/><polygon points="354,516 409.20746294589947,485.3684947884896 434.0795937909281,486.0639467769706" fill="#555894" stroke="#000" stroke-width="1"/><polygon points="354,516 409.20746294589947,485.3684947884896 462,516" fill="#9478b1" stroke="#000" stroke-width="1"/><polygon points="300.98750861031976,458.33963460856563 351.17872002434785,433.1144374093488 354,516" fill="#e68d99" stroke="#000" stroke-width="1"/><polygon points="246,516 300.98750861031976,458.33963460856563 354,516" fill="#96a4e0" stroke="#000" stroke-width="1"/><polygon points="246,516 351.17872002434785,433.1144374093488 354,516" fill="#9478b1" stroke="#000" stroke-width="1"/><polygon points="351.17872002434785,433.1144374093488 354,516 462,516" fill="#96a4e0" stroke="#000" stroke-width="1"/><polygon points="354,516 434.0795937909281,486.0639467769706 462,516" fill="#96a4e0" stroke="#000" stroke-width="1"/><polygon points="433.59214123122945,112.1693090661497 463.68954834369634,111.30560643946623 489,84.00000000000001" fill="#e68d99" stroke="#000" stroke-width="1"/><polygon points="381,84.00000000000001 433.59214123122945,112.1693090661497 463.68954834369634,111.30560643946623" fill="#9699da" stroke="#000" stroke-width="1"/><polygon points="381,84.00000000000001 463.68954834369634,111.30560643946623 489,84.00000000000001" fill="#555894" stroke="#000" stroke-width="1"/><polygon points="142.0684533498718,166.38474743115708 215.11551598125382,187.9475125740379 215.49486928865346,108.4782634969503" fill="#9478b1" stroke="#000" stroke-width="1"/><polygon points="142.0684533498718,166.38474743115708 194.22755046636186,108.22978849184551 215.11551598125382,187.9475125740379" fill="#e68d99" stroke="#000" stroke-width="1"/><polygon points="84.00000000000001,192 142.0684533498718,166.38474743115708 215.11551598125382,187.9475125740379" fill="#eab6f1" stroke="#000" stroke-width="1"/><polygon points="194.22755046636186,108.22978849184551 215.11551598125382,187.9475125740379 215.49486928865346,108.4782634969503" fill="#96a4e0" stroke="#000" stroke-width="1"/><polygon points="215.11551598125382,187.9475125740379 215.49486928865346,108.4782634969503 299.1753775221987,136.71836181557268" fill="#555894" stroke="#000" stroke-width="1"/><polygon points="215.11551598125382,187.9475125740379 215.49486928865346,108.4782634969503 296.34807907231,106.85553628140528" fill="#9478b1" stroke="#000" stroke-width="1"/><polygon points="194.22755046636186,108.22978849184551 215.11551598125382,187.9475125740379 296.34807907231,106.85553628140528" fill="#96a4e0" stroke="#000" stroke-width="1"/><polygon points="215.11551598125382,187.9475125740379 299.1753775221987,136.71836181557268 302.2452839586239,193.87679197462694" fill="#96a4e0" stroke="#000" stroke-width="1"/><polygon points="215.11551598125382,187.9475125740379 296.34807907231,106.85553628140528 302.2452839586239,193.87679197462694" fill="#9478b1" stroke="#000" stroke-width="1"/><polygon points="84.00000000000001,192 167.63090055071896,269.4205976800322 215.11551598125382,187.9475125740379" fill="#9699da" stroke="#000" stroke-width="1"/><polygon points="215.11551598125382,187.9475125740379 296.34807907231,106.85553628140528 299.1753775221987,136.71836181557268" fill="#555894" stroke="#000" stroke-width="1"/><polygon points="246,516 300,516 300.98750861031976,458.33963460856563" fill="#eab6f1" stroke="#000" stroke-width="1"/><polygon points="246,516 273.70464595359044,437.35331447374557 300,516" fill="#eab6f1" stroke="#000" stroke-width="1"/><polygon points="218.65385857375347,460.7362266611171 246,516 300.98750861031976,458.33963460856563" fill="#7d72cc" stroke="#000" stroke-width="1"/><polygon points="218.65385857375347,460.7362266611171 246,516 273.70464595359044,437.35331447374557" fill="#9478b1" stroke="#000" stroke-width="1"/><polygon points="218.65385857375347,460.7362266611171 219.96094082998724,376.99693113581407 246,516" fill="#e68d99" stroke="#000" stroke-width="1"/><polygon points="246,516 273.70464595359044,437.35331447374557 300.98750861031976,458.33963460856563" fill="#eab6f1" stroke="#000" stroke-width="1"/><polygon points="246,516 300.98750861031976,458.33963460856563 351.17872002434785,433.1144374093488" fill="#9699da" stroke="#000" stroke-width="1"/><polygon points="246,516 300.98750861031976,458.33963460856563 331.26460753837205,411.91124263410774" fill="#7d72cc" stroke="#000" stroke-width="1"/><polygon points="246,516 273.70464595359044,437.35331447374557 351.17872002434785,433.1144374093488" fill="#e68d99" stroke="#000" stroke-width="1"/><polygon points="246,516 273.70464595359044,437.35331447374557 331.26460753837205,411.91124263410774" fill="#555894" stroke="#000" stroke-width="1"/><polygon points="219.96094082998724,376.99693113581407 246,516 273.70464595359044,437.35331447374557" fill="#9699da" stroke="#000" stroke-width="1"/><polygon points="246,516 331.26460753837205,411.91124263410774 351.17872002434785,433.1144374093488" fill="#7d72cc" stroke="#000" stroke-width="1"/><polygon points="439.2421763862544,270.13135948026473 490.4821819271742,323.5134457904853 516,300" fill="#7d72cc" stroke="#000" stroke-width="1"/><polygon points="349.6886321625768,270.83974873292806 350.93817575945053,299.71211475914333 439.2421763862544,270.13135948026473" fill="#eab6f1" stroke="#000" stroke-width="1"/><polygon points="349.6886321625768,270.83974873292806 379.0740821035101,192.84964667376673 439.2421763862544,270.13135948026473" fill="#eab6f1" stroke="#000" stroke-width="1"/><polygon points="349.6886321625768,270.83974873292806 352.5828062274313,331.02452654303363 439.2421763862544,270.13135948026473" fill="#9478b1" stroke="#000" stroke-width="1"/><polygon points="350.93817575945053,299.71211475914333 352.5828062274313,331.02452654303363 439.2421763862544,270.13135948026473" fill="#eab6f1" stroke="#000" stroke-width="1"/><polygon points="135.28826228959522,381.4152777630443 139.30278427758904,299.6918426268682 193.1197674689482,323.9832780943651" fill="#9478b1" stroke="#000" stroke-width="1"/><polygon points="135.28826228959522,381.4152777630443 193.1197674689482,323.9832780943651 219.96094082998724,376.99693113581407" fill="#e68d99" stroke="#000" stroke-width="1"/><polygon points="135.28826228959522,381.4152777630443 187.73972684518955,304.00238148836854 193.1197674689482,323.9832780943651" fill="#e68d99" stroke="#000" stroke-width="1"/><polygon points="135.28826228959522,381.4152777630443 139.30278427758904,299.6918426268682 187.73972684518955,304.00238148836854" fill="#9699da" stroke="#000" stroke-width="1"/><polygon points="135.28826228959522,381.4152777630443 187.73972684518955,304.00238148836854 219.96094082998724,376.99693113581407" fill="#555894" stroke="#000" stroke-width="1"/><polygon points="381,84.00000000000001 433.59214123122945,112.1693090661497 489,84.00000000000001" fill="#9478b1" stroke="#000" stroke-width="1"/><polygon points="379.0740821035101,192.84964667376673 381,84.00000000000001 433.59214123122945,112.1693090661497" fill="#9699da" stroke="#000" stroke-width="1"/><polygon points="296.34807907231,106.85553628140528 299.1753775221987,136.71836181557268 381,84.00000000000001" fill="#9699da" stroke="#000" stroke-width="1"/><polygon points="299.1753775221987,136.71836181557268 379.0740821035101,192.84964667376673 381,84.00000000000001" fill="#96a4e0" stroke="#000" stroke-width="1"/><polygon points="409.20746294589947,485.3684947884896 434.0795937909281,486.0639467769706 462,516" fill="#9699da" stroke="#000" stroke-width="1"/><polygon points="409.20746294589947,485.3684947884896 434.0795937909281,486.0639467769706 516,489" fill="#555894" stroke="#000" stroke-width="1"/><polygon points="434.0795937909281,486.0639467769706 462,516 516,489" fill="#96a4e0" stroke="#000" stroke-width="1"/><polygon points="434.0795937909281,486.0639467769706 462,516 516,381" fill="#eab6f1" stroke="#000" stroke-width="1"/><polygon points="434.0795937909281,486.0639467769706 516,381 516,489" fill="#9478b1" stroke="#000" stroke-width="1"/><polygon points="331.26460753837205,411.91124263410774 352.5828062274313,331.02452654303363 403.74028751328365,380.28500394785766" fill="#9478b1" stroke="#000" stroke-width="1"/><polygon points="331.26460753837205,411.91124263410774 351.17872002434785,433.1144374093488 403.74028751328365,380.28500394785766" fill="#555894" stroke="#000" stroke-width="1"/><polygon points="351.17872002434785,433.1144374093488 403.74028751328365,380.28500394785766 409.20746294589947,485.3684947884896" fill="#96a4e0" stroke="#000" stroke-width="1"/><polygon points="331.26460753837205,411.91124263410774 403.74028751328365,380.28500394785766 409.20746294589947,485.3684947884896" fill="#9478b1" stroke="#000" stroke-width="1"/><polygon points="299.1753775221987,136.71836181557268 302.2452839586239,193.87679197462694 379.0740821035101,192.84964667376673" fill="#eab6f1" stroke="#000" stroke-width="1"/><polygon points="296.34807907231,106.85553628140528 299.1753775221987,136.71836181557268 302.2452839586239,193.87679197462694" fill="#7d72cc" stroke="#000" stroke-width="1"/><polygon points="302.2452839586239,193.87679197462694 349.6886321625768,270.83974873292806 379.0740821035101,192.84964667376673" fill="#7d72cc" stroke="#000" stroke-width="1"/><polygon points="351.17872002434785,433.1144374093488 409.20746294589947,485.3684947884896 462,516" fill="#96a4e0" stroke="#000" stroke-width="1"/><polygon points="409.20746294589947,485.3684947884896 462,516 516,489" fill="#555894" stroke="#000" stroke-width="1"/><polygon points="331.26460753837205,411.91124263410774 351.17872002434785,433.1144374093488 409.20746294589947,485.3684947884896" fill="#eab6f1" stroke="#000" stroke-width="1"/><polygon points="139.30278427758904,299.6918426268682 167.63090055071896,269.4205976800322 187.73972684518955,304.00238148836854" fill="#7d72cc" stroke="#000" stroke-width="1"/><polygon points="84.00000000000001,192 139.30278427758904,299.6918426268682 167.63090055071896,269.4205976800322" fill="#9699da" stroke="#000" stroke-width="1"/><polygon points="139.30278427758904,299.6918426268682 187.73972684518955,304.00238148836854 193.1197674689482,323.9832780943651" fill="#96a4e0" stroke="#000" stroke-width="1"/><polygon points="349.6886321625768,270.83974873292806 350.93817575945053,299.71211475914333 352.5828062274313,331.02452654303363" fill="#96a4e0" stroke="#000" stroke-width="1"/><polygon points="187.73972684518955,304.00238148836854 193.1197674689482,323.9832780943651 219.96094082998724,376.99693113581407" fill="#9699da" stroke="#000" stroke-width="1"/><polygon points="273.70464595359044,437.35331447374557 300,516 300.98750861031976,458.33963460856563" fill="#555894" stroke="#000" stroke-width="1"/><polygon points="490.4821819271742,323.5134457904853 516,300 516,381" fill="#9699da" stroke="#000" stroke-width="1"/><polygon points="462,516 516,381 516,489" fill="#9478b1" stroke="#000" stroke-width="1"/><polygon points="192,84.00000000000001 194.22755046636186,108.22978849184551 215.49486928865346,108.4782634969503" fill="#555894" stroke="#000" stroke-width="1"/><polygon points="142.0684533498718,166.38474743115708 192,84.00000000000001 194.22755046636186,108.22978849184551" fill="#96a4e0" stroke="#000" stroke-width="1"/><polygon points="192,84.00000000000001 194.22755046636186,108.22978849184551 296.34807907231,106.85553628140528" fill="#555894" stroke="#000" stroke-width="1"/><polygon points="142.0684533498718,166.38474743115708 192,84.00000000000001 215.49486928865346,108.4782634969503" fill="#eab6f1" stroke="#000" stroke-width="1"/><polygon points="192,84.00000000000001 215.49486928865346,108.4782634969503 296.34807907231,106.85553628140528" fill="#555894" stroke="#000" stroke-width="1"/><polygon points="218.65385857375347,460.7362266611171 219.96094082998724,376.99693113581407 273.70464595359044,437.35331447374557" fill="#e68d99" stroke="#000" stroke-width="1"/><polygon points="142.0684533498718,166.38474743115708 194.22755046636186,108.22978849184551 215.49486928865346,108.4782634969503" fill="#9699da" stroke="#000" stroke-width="1"/><polygon points="194.22755046636186,108.22978849184551 215.49486928865346,108.4782634969503 296.34807907231,106.85553628140528" fill="#9478b1" stroke="#000" stroke-width="1"/><polygon points="215.49486928865346,108.4782634969503 296.34807907231,106.85553628140528 299.1753775221987,136.71836181557268" fill="#555894" stroke="#000" stroke-width="1"/><polygon points="218.65385857375347,460.7362266611171 273.70464595359044,437.35331447374557 300.98750861031976,458.33963460856563" fill="#7d72cc" stroke="#000" stroke-width="1"/><polygon points="273.70464595359044,437.35331447374557 300.98750861031976,458.33963460856563 331.26460753837205,411.91124263410774" fill="#7d72cc" stroke="#000" stroke-width="1"/><polygon points="273.70464595359044,437.35331447374557 300.98750861031976,458.33963460856563 351.17872002434785,433.1144374093488" fill="#9478b1" stroke="#000" stroke-width="1"/><polygon points="300.98750861031976,458.33963460856563 331.26460753837205,411.91124263410774 351.17872002434785,433.1144374093488" fill="#7d72cc" stroke="#000" stroke-width="1"/><polygon points="273.70464595359044,437.35331447374557 331.26460753837205,411.91124263410774 351.17872002434785,433.1144374093488" fill="#e68d99" stroke="#000" stroke-width="1"/></svg>