<svg xmlns="http://www.w3.org/2000/svg" width="600" height="600">
                <rect width="100%" height="100%" fill="#000"/><polygon points="467.84736136721625,328.40555122554565 475.28435744217825,302.90536126794257 510.07643161629323,301.172598763342" fill="#6ddbd3" stroke="#000" stroke-width="1"/><polygon points="428.6630314574004,394.46879477093006 467.84736136721625,328.40555122554565 475.28435744217825,302.90536126794257" fill="#ffb2f5" stroke="#000" stroke-width="1"/><polygon points="398.0146774557755,399.55012647512 467.84736136721625,328.40555122554565 475.28435744217825,302.90536126794257" fill="#6ddbd3" stroke="#000" stroke-width="1"/><polygon points="427.79115909025893,235.86959531279402 467.84736136721625,328.40555122554565 475.28435744217825,302.90536126794257" fill="#6ddbd3" stroke="#000" stroke-width="1"/><polygon points="467.84736136721625,328.40555122554565 475.28435744217825,302.90536126794257 537.7466031784992,403.0716125476688" fill="#a7dcc3" stroke="#000" stroke-width="1"/><polygon points="467.84736136721625,328.40555122554565 475.28435744217825,302.90536126794257 570,333.75" fill="#fed579" stroke="#000" stroke-width="1"/><polygon points="428.6630314574004,394.46879477093006 467.84736136721625,328.40555122554565 510.07643161629323,301.172598763342" fill="#67c8de" stroke="#000" stroke-width="1"/><polygon points="427.79115909025893,235.86959531279402 467.84736136721625,328.40555122554565 510.07643161629323,301.172598763342" fill="#76b3ff" stroke="#000" stroke-width="1"/><polygon points="467.84736136721625,328.40555122554565 510.07643161629323,301.172598763342 537.7466031784992,403.0716125476688" fill="#a7dcc3" stroke="#000" stroke-width="1"/><polygon points="467.84736136721625,328.40555122554565 510.07643161629323,301.172598763342 570,333.75" fill="#67c8de" stroke="#000" stroke-width="1"/><polygon points="398.0146774557755,399.55012647512 428.6630314574004,394.46879477093006 467.84736136721625,328.40555122554565" fill="#76b3ff" stroke="#000" stroke-width="1"/><polygon points="427.79115909025893,235.86959531279402 428.6630314574004,394.46879477093006 467.84736136721625,328.40555122554565" fill="#67c8de" stroke="#000" stroke-width="1"/><polygon points="428.6630314574004,394.46879477093006 467.84736136721625,328.40555122554565 570,333.75" fill="#fed579" stroke="#000" stroke-width="1"/><polygon points="467.84736136721625,328.40555122554565 537.7466031784992,403.0716125476688 570,333.75" fill="#fed579" stroke="#000" stroke-width="1"/><polygon points="104.95803752906959,204.36216469286344 129.53833323661604,238.52780799634994 137.99306122766205,193.85435143692203" fill="#fed579" stroke="#000" stroke-width="1"/><polygon points="104.95803752906959,204.36216469286344 137.99306122766205,193.85435143692203 168.9104903543172,229.75892779216286" fill="#ffb2f5" stroke="#000" stroke-width="1"/><polygon points="104.95803752906959,204.36216469286344 135.51999137860176,134.2510522152973 137.99306122766205,193.85435143692203" fill="#67c8de" stroke="#000" stroke-width="1"/><polygon points="103.92845325812566,94.22695863082855 104.95803752906959,204.36216469286344 137.99306122766205,193.85435143692203" fill="#ff8989" stroke="#000" stroke-width="1"/><polygon points="57.09616491420768,90.15425201298935 104.95803752906959,204.36216469286344 137.99306122766205,193.85435143692203" fill="#6ddbd3" stroke="#000" stroke-width="1"/><polygon points="104.95803752906959,204.36216469286344 129.53833323661604,238.52780799634994 168.9104903543172,229.75892779216286" fill="#67c8de" stroke="#000" stroke-width="1"/><polygon points="104.95803752906959,204.36216469286344 129.53833323661604,238.52780799634994 135.51999137860176,134.2510522152973" fill="#ff8989" stroke="#000" stroke-width="1"/><polygon points="30,266.25 104.95803752906959,204.36216469286344 129.53833323661604,238.52780799634994" fill="#fed579" stroke="#000" stroke-width="1"/><polygon points="57.09616491420768,90.15425201298935 104.95803752906959,204.36216469286344 129.53833323661604,238.52780799634994" fill="#ffb2f5" stroke="#000" stroke-width="1"/><polygon points="104.95803752906959,204.36216469286344 135.51999137860176,134.2510522152973 168.9104903543172,229.75892779216286" fill="#a7dcc3" stroke="#000" stroke-width="1"/><polygon points="57.09616491420768,90.15425201298935 104.95803752906959,204.36216469286344 168.9104903543172,229.75892779216286" fill="#a7dcc3" stroke="#000" stroke-width="1"/><polygon points="103.92845325812566,94.22695863082855 104.95803752906959,204.36216469286344 135.51999137860176,134.2510522152973" fill="#fed579" stroke="#000" stroke-width="1"/><polygon points="57.09616491420768,90.15425201298935 104.95803752906959,204.36216469286344 135.51999137860176,134.2510522152973" fill="#67c8de" stroke="#000" stroke-width="1"/><polygon points="30,266.25 57.09616491420768,90.15425201298935 104.95803752906959,204.36216469286344" fill="#ff8989" stroke="#000" stroke-width="1"/><polygon points="57.09616491420768,90.15425201298935 103.92845325812566,94.22695863082855 104.95803752906959,204.36216469286344" fill="#67c8de" stroke="#000" stroke-width="1"/><polygon points="372.5951429114603,501.2030930232668 401.20880230336843,432.1305086912183 402.06410373424114,462.4840457524809" fill="#ff8989" stroke="#000" stroke-width="1"/><polygon points="398.0146774557755,399.55012647512 401.20880230336843,432.1305086912183 402.06410373424114,462.4840457524809" fill="#a7dcc3" stroke="#000" stroke-width="1"/><polygon points="374.67160677054693,403.31382007678735 401.20880230336843,432.1305086912183 402.06410373424114,462.4840457524809" fill="#ffb2f5" stroke="#000" stroke-width="1"/><polygon points="401.20880230336843,432.1305086912183 402.06410373424114,462.4840457524809 428.6630314574004,394.46879477093006" fill="#6ddbd3" stroke="#000" stroke-width="1"/><polygon points="327.50959927291717,471.4391751216484 401.20880230336843,432.1305086912183 402.06410373424114,462.4840457524809" fill="#ff8989" stroke="#000" stroke-width="1"/><polygon points="328.5014425088924,401.8535656053432 401.20880230336843,432.1305086912183 402.06410373424114,462.4840457524809" fill="#a7dcc3" stroke="#000" stroke-width="1"/><polygon points="401.20880230336843,432.1305086912183 402.06410373424114,462.4840457524809 505.58452098074196,535.064947151993" fill="#ffb2f5" stroke="#000" stroke-width="1"/><polygon points="367.5,570 401.20880230336843,432.1305086912183 402.06410373424114,462.4840457524809" fill="#ff8989" stroke="#000" stroke-width="1"/><polygon points="401.20880230336843,432.1305086912183 402.06410373424114,462.4840457524809 507.0712012120402,471.19965455774127" fill="#76b3ff" stroke="#000" stroke-width="1"/><polygon points="401.20880230336843,432.1305086912183 402.06410373424114,462.4840457524809 570,502.5" fill="#fed579" stroke="#000" stroke-width="1"/><polygon points="401.20880230336843,432.1305086912183 402.06410373424114,462.4840457524809 543.7246590218633,533.0560532330704" fill="#67c8de" stroke="#000" stroke-width="1"/><polygon points="372.5951429114603,501.2030930232668 398.0146774557755,399.55012647512 402.06410373424114,462.4840457524809" fill="#ffb2f5" stroke="#000" stroke-width="1"/><polygon points="327.50959927291717,471.4391751216484 372.5951429114603,501.2030930232668 402.06410373424114,462.4840457524809" fill="#6ddbd3" stroke="#000" stroke-width="1"/><polygon points="302.94459760365856,497.9178822056885 372.5951429114603,501.2030930232668 402.06410373424114,462.4840457524809" fill="#a7dcc3" stroke="#000" stroke-width="1"/><polygon points="372.5951429114603,501.2030930232668 402.06410373424114,462.4840457524809 505.58452098074196,535.064947151993" fill="#ffb2f5" stroke="#000" stroke-width="1"/><polygon points="367.5,570 372.5951429114603,501.2030930232668 402.06410373424114,462.4840457524809" fill="#76b3ff" stroke="#000" stroke-width="1"/><polygon points="372.5951429114603,501.2030930232668 402.06410373424114,462.4840457524809 507.0712012120402,471.19965455774127" fill="#a7dcc3" stroke="#000" stroke-width="1"/><polygon points="372.5951429114603,501.2030930232668 402.06410373424114,462.4840457524809 570,502.5" fill="#67c8de" stroke="#000" stroke-width="1"/><polygon points="372.5951429114603,501.2030930232668 402.06410373424114,462.4840457524809 543.7246590218633,533.0560532330704" fill="#fed579" stroke="#000" stroke-width="1"/><polygon points="374.67160677054693,403.31382007678735 398.0146774557755,399.55012647512 402.06410373424114,462.4840457524809" fill="#6ddbd3" stroke="#000" stroke-width="1"/><polygon points="398.0146774557755,399.55012647512 402.06410373424114,462.4840457524809 428.6630314574004,394.46879477093006" fill="#fed579" stroke="#000" stroke-width="1"/><polygon points="327.50959927291717,471.4391751216484 398.0146774557755,399.55012647512 402.06410373424114,462.4840457524809" fill="#ff8989" stroke="#000" stroke-width="1"/><polygon points="328.5014425088924,401.8535656053432 398.0146774557755,399.55012647512 402.06410373424114,462.4840457524809" fill="#6ddbd3" stroke="#000" stroke-width="1"/><polygon points="398.0146774557755,399.55012647512 402.06410373424114,462.4840457524809 507.0712012120402,471.19965455774127" fill="#fed579" stroke="#000" stroke-width="1"/><polygon points="374.67160677054693,403.31382007678735 402.06410373424114,462.4840457524809 428.6630314574004,394.46879477093006" fill="#6ddbd3" stroke="#000" stroke-width="1"/><polygon points="327.50959927291717,471.4391751216484 374.67160677054693,403.31382007678735 402.06410373424114,462.4840457524809" fill="#a7dcc3" stroke="#000" stroke-width="1"/><polygon points="328.5014425088924,401.8535656053432 374.67160677054693,403.31382007678735 402.06410373424114,462.4840457524809" fill="#67c8de" stroke="#000" stroke-width="1"/><polygon points="402.06410373424114,462.4840457524809 428.6630314574004,394.46879477093006 507.0712012120402,471.19965455774127" fill="#a7dcc3" stroke="#000" stroke-width="1"/><polygon points="402.06410373424114,462.4840457524809 428.6630314574004,394.46879477093006 570,502.5" fill="#fed579" stroke="#000" stroke-width="1"/><polygon points="327.50959927291717,471.4391751216484 328.5014425088924,401.8535656053432 402.06410373424114,462.4840457524809" fill="#fed579" stroke="#000" stroke-width="1"/><polygon points="302.94459760365856,497.9178822056885 327.50959927291717,471.4391751216484 402.06410373424114,462.4840457524809" fill="#a7dcc3" stroke="#000" stroke-width="1"/><polygon points="327.50959927291717,471.4391751216484 367.5,570 402.06410373424114,462.4840457524809" fill="#ff8989" stroke="#000" stroke-width="1"/><polygon points="302.94459760365856,497.9178822056885 367.5,570 402.06410373424114,462.4840457524809" fill="#a7dcc3" stroke="#000" stroke-width="1"/><polygon points="367.5,570 402.06410373424114,462.4840457524809 505.58452098074196,535.064947151993" fill="#ff8989" stroke="#000" stroke-width="1"/><polygon points="402.06410373424114,462.4840457524809 505.58452098074196,535.064947151993 507.0712012120402,471.19965455774127" fill="#ffb2f5" stroke="#000" stroke-width="1"/><polygon points="402.06410373424114,462.4840457524809 505.58452098074196,535.064947151993 570,502.5" fill="#67c8de" stroke="#000" stroke-width="1"/><polygon points="402.06410373424114,462.4840457524809 505.58452098074196,535.064947151993 543.7246590218633,533.0560532330704" fill="#76b3ff" stroke="#000" stroke-width="1"/><polygon points="367.5,570 402.06410373424114,462.4840457524809 543.7246590218633,533.0560532330704" fill="#76b3ff" stroke="#000" stroke-width="1"/><polygon points="402.06410373424114,462.4840457524809 507.0712012120402,471.19965455774127 570,502.5" fill="#fed579" stroke="#000" stroke-width="1"/><polygon points="402.06410373424114,462.4840457524809 507.0712012120402,471.19965455774127 543.7246590218633,533.0560532330704" fill="#76b3ff" stroke="#000" stroke-width="1"/><polygon points="402.06410373424114,462.4840457524809 543.7246590218633,533.0560532330704 570,502.5" fill="#a7dcc3" stroke="#000" stroke-width="1"/><polygon points="435.21268712522846,99.72888228992724 442.6744296915383,65.54840084640787 466.0048831935701,94.51345663248239" fill="#ff8989" stroke="#000" stroke-width="1"/><polygon points="434.2450185344268,164.09393223106076 435.21268712522846,99.72888228992724 466.0048831935701,94.51345663248239" fill="#67c8de" stroke="#000" stroke-width="1"/><polygon points="373.20731180211385,135.25684799922595 435.21268712522846,99.72888228992724 466.0048831935701,94.51345663248239" fill="#76b3ff" stroke="#000" stroke-width="1"/><polygon points="435.21268712522846,99.72888228992724 466.0048831935701,94.51345663248239 500.3262634859109,130.97054586723053" fill="#6ddbd3" stroke="#000" stroke-width="1"/><polygon points="427.79115909025893,235.86959531279402 435.21268712522846,99.72888228992724 466.0048831935701,94.51345663248239" fill="#ffb2f5" stroke="#000" stroke-width="1"/><polygon points="336.4060837064572,69.17703140865788 435.21268712522846,99.72888228992724 466.0048831935701,94.51345663248239" fill="#6ddbd3" stroke="#000" stroke-width="1"/><polygon points="334.2192296840209,101.8110718674501 435.21268712522846,99.72888228992724 466.0048831935701,94.51345663248239" fill="#67c8de" stroke="#000" stroke-width="1"/><polygon points="434.2450185344268,164.09393223106076 435.21268712522846,99.72888228992724 442.6744296915383,65.54840084640787" fill="#ff8989" stroke="#000" stroke-width="1"/><polygon points="373.20731180211385,135.25684799922595 435.21268712522846,99.72888228992724 442.6744296915383,65.54840084640787" fill="#76b3ff" stroke="#000" stroke-width="1"/><polygon points="435.21268712522846,99.72888228992724 442.6744296915383,65.54840084640787 500.3262634859109,130.97054586723053" fill="#a7dcc3" stroke="#000" stroke-width="1"/><polygon points="336.4060837064572,69.17703140865788 435.21268712522846,99.72888228992724 442.6744296915383,65.54840084640787" fill="#a7dcc3" stroke="#000" stroke-width="1"/><polygon points="334.2192296840209,101.8110718674501 435.21268712522846,99.72888228992724 442.6744296915383,65.54840084640787" fill="#ffb2f5" stroke="#000" stroke-width="1"/><polygon points="373.20731180211385,135.25684799922595 434.2450185344268,164.09393223106076 435.21268712522846,99.72888228992724" fill="#fed579" stroke="#000" stroke-width="1"/><polygon points="434.2450185344268,164.09393223106076 435.21268712522846,99.72888228992724 500.3262634859109,130.97054586723053" fill="#67c8de" stroke="#000" stroke-width="1"/><polygon points="427.79115909025893,235.86959531279402 434.2450185344268,164.09393223106076 435.21268712522846,99.72888228992724" fill="#a7dcc3" stroke="#000" stroke-width="1"/><polygon points="336.4060837064572,69.17703140865788 434.2450185344268,164.09393223106076 435.21268712522846,99.72888228992724" fill="#ff8989" stroke="#000" stroke-width="1"/><polygon points="334.2192296840209,101.8110718674501 434.2450185344268,164.09393223106076 435.21268712522846,99.72888228992724" fill="#6ddbd3" stroke="#000" stroke-width="1"/><polygon points="373.20731180211385,135.25684799922595 435.21268712522846,99.72888228992724 500.3262634859109,130.97054586723053" fill="#ff8989" stroke="#000" stroke-width="1"/><polygon points="373.20731180211385,135.25684799922595 427.79115909025893,235.86959531279402 435.21268712522846,99.72888228992724" fill="#ffb2f5" stroke="#000" stroke-width="1"/><polygon points="336.4060837064572,69.17703140865788 373.20731180211385,135.25684799922595 435.21268712522846,99.72888228992724" fill="#ffb2f5" stroke="#000" stroke-width="1"/><polygon points="334.2192296840209,101.8110718674501 373.20731180211385,135.25684799922595 435.21268712522846,99.72888228992724" fill="#a7dcc3" stroke="#000" stroke-width="1"/><polygon points="427.79115909025893,235.86959531279402 435.21268712522846,99.72888228992724 500.3262634859109,130.97054586723053" fill="#6ddbd3" stroke="#000" stroke-width="1"/><polygon points="336.4060837064572,69.17703140865788 435.21268712522846,99.72888228992724 500.3262634859109,130.97054586723053" fill="#67c8de" stroke="#000" stroke-width="1"/><polygon points="334.2192296840209,101.8110718674501 435.21268712522846,99.72888228992724 500.3262634859109,130.97054586723053" fill="#76b3ff" stroke="#000" stroke-width="1"/><polygon points="334.2192296840209,101.8110718674501 336.4060837064572,69.17703140865788 435.21268712522846,99.72888228992724" fill="#ffb2f5" stroke="#000" stroke-width="1"/><polygon points="96.68947975368937,428.1601156170427 101.11951658933755,403.51064269958727 136.12839573891685,441.4349496195392" fill="#76b3ff" stroke="#000" stroke-width="1"/><polygon points="96.68947975368937,428.1601156170427 136.12839573891685,441.4349496195392 172.7048065081199,509.5195314279788" fill="#ffb2f5" stroke="#000" stroke-width="1"/><polygon points="67.28533742742121,495.4923793358619 96.68947975368937,428.1601156170427 136.12839573891685,441.4349496195392" fill="#6ddbd3" stroke="#000" stroke-width="1"/><polygon points="30,367.5 96.68947975368937,428.1601156170427 136.12839573891685,441.4349496195392" fill="#a7dcc3" stroke="#000" stroke-width="1"/><polygon points="30,502.5 96.68947975368937,428.1601156170427 136.12839573891685,441.4349496195392" fill="#fed579" stroke="#000" stroke-width="1"/><polygon points="67.28533742742121,495.4923793358619 101.11951658933755,403.51064269958727 136.12839573891685,441.4349496195392" fill="#76b3ff" stroke="#000" stroke-width="1"/><polygon points="30,367.5 101.11951658933755,403.51064269958727 136.12839573891685,441.4349496195392" fill="#ffb2f5" stroke="#000" stroke-width="1"/><polygon points="30,502.5 101.11951658933755,403.51064269958727 136.12839573891685,441.4349496195392" fill="#76b3ff" stroke="#000" stroke-width="1"/><polygon points="67.28533742742121,495.4923793358619 136.12839573891685,441.4349496195392 172.7048065081199,509.5195314279788" fill="#76b3ff" stroke="#000" stroke-width="1"/><polygon points="136.12839573891685,441.4349496195392 172.7048065081199,509.5195314279788 232.2952056516097,441.3836018872862" fill="#fed579" stroke="#000" stroke-width="1"/><polygon points="30,502.5 136.12839573891685,441.4349496195392 172.7048065081199,509.5195314279788" fill="#ffb2f5" stroke="#000" stroke-width="1"/><polygon points="30,367.5 67.28533742742121,495.4923793358619 136.12839573891685,441.4349496195392" fill="#ff8989" stroke="#000" stroke-width="1"/><polygon points="67.28533742742121,495.4923793358619 136.12839573891685,441.4349496195392 232.2952056516097,441.3836018872862" fill="#ff8989" stroke="#000" stroke-width="1"/><polygon points="30,502.5 67.28533742742121,495.4923793358619 136.12839573891685,441.4349496195392" fill="#6ddbd3" stroke="#000" stroke-width="1"/><polygon points="30,367.5 30,502.5 136.12839573891685,441.4349496195392" fill="#a7dcc3" stroke="#000" stroke-width="1"/><polygon points="30,502.5 136.12839573891685,441.4349496195392 232.2952056516097,441.3836018872862" fill="#67c8de" stroke="#000" stroke-width="1"/><polygon points="427.79115909025893,235.86959531279402 475.28435744217825,302.90536126794257 510.07643161629323,301.172598763342" fill="#a7dcc3" stroke="#000" stroke-width="1"/><polygon points="475.28435744217825,302.90536126794257 510.07643161629323,301.172598763342 570,333.75" fill="#67c8de" stroke="#000" stroke-width="1"/><polygon points="428.6630314574004,394.46879477093006 475.28435744217825,302.90536126794257 510.07643161629323,301.172598763342" fill="#67c8de" stroke="#000" stroke-width="1"/><polygon points="475.28435744217825,302.90536126794257 510.07643161629323,301.172598763342 537.7466031784992,403.0716125476688" fill="#76b3ff" stroke="#000" stroke-width="1"/><polygon points="427.79115909025893,235.86959531279402 428.6630314574004,394.46879477093006 475.28435744217825,302.90536126794257" fill="#6ddbd3" stroke="#000" stroke-width="1"/><polygon points="428.6630314574004,394.46879477093006 475.28435744217825,302.90536126794257 570,333.75" fill="#76b3ff" stroke="#000" stroke-width="1"/><polygon points="475.28435744217825,302.90536126794257 537.7466031784992,403.0716125476688 570,333.75" fill="#6ddbd3" stroke="#000" stroke-width="1"/><polygon points="398.0146774557755,399.55012647512 428.6630314574004,394.46879477093006 475.28435744217825,302.90536126794257" fill="#6ddbd3" stroke="#000" stroke-width="1"/><polygon points="166.51251571755932,301.4271502886066 196.40467525252117,340.4130209817652 230.73262298571413,330.78734367673275" fill="#fed579" stroke="#000" stroke-width="1"/><polygon points="196.40467525252117,340.4130209817652 230.73262298571413,330.78734367673275 261.7800516158757,336.8835857856453" fill="#ff8989" stroke="#000" stroke-width="1"/><polygon points="196.40467525252117,340.4130209817652 230.73262298571413,330.78734367673275 237.20370076721878,404.76965076947687" fill="#fed579" stroke="#000" stroke-width="1"/><polygon points="196.40467525252117,340.4130209817652 230.73262298571413,330.78734367673275 296.47325649579744,327.6974380378703" fill="#6ddbd3" stroke="#000" stroke-width="1"/><polygon points="196.40467525252117,340.4130209817652 230.73262298571413,330.78734367673275 232.6230757494071,237.59627890197243" fill="#a7dcc3" stroke="#000" stroke-width="1"/><polygon points="166.51251571755932,301.4271502886066 196.40467525252117,340.4130209817652 232.6230757494071,237.59627890197243" fill="#67c8de" stroke="#000" stroke-width="1"/><polygon points="166.51251571755932,301.4271502886066 168.9104903543172,229.75892779216286 196.40467525252117,340.4130209817652" fill="#67c8de" stroke="#000" stroke-width="1"/><polygon points="196.40467525252117,340.4130209817652 237.20370076721878,404.76965076947687 261.7800516158757,336.8835857856453" fill="#67c8de" stroke="#000" stroke-width="1"/><polygon points="196.40467525252117,340.4130209817652 261.7800516158757,336.8835857856453 296.47325649579744,327.6974380378703" fill="#fed579" stroke="#000" stroke-width="1"/><polygon points="196.40467525252117,340.4130209817652 232.6230757494071,237.59627890197243 261.7800516158757,336.8835857856453" fill="#ff8989" stroke="#000" stroke-width="1"/><polygon points="196.40467525252117,340.4130209817652 237.20370076721878,404.76965076947687 296.47325649579744,327.6974380378703" fill="#6ddbd3" stroke="#000" stroke-width="1"/><polygon points="196.40467525252117,340.4130209817652 232.2952056516097,441.3836018872862 237.20370076721878,404.76965076947687" fill="#ff8989" stroke="#000" stroke-width="1"/><polygon points="196.40467525252117,340.4130209817652 232.6230757494071,237.59627890197243 296.47325649579744,327.6974380378703" fill="#ffb2f5" stroke="#000" stroke-width="1"/><polygon points="168.9104903543172,229.75892779216286 196.40467525252117,340.4130209817652 232.6230757494071,237.59627890197243" fill="#76b3ff" stroke="#000" stroke-width="1"/><polygon points="166.51251571755932,301.4271502886066 230.73262298571413,330.78734367673275 232.6230757494071,237.59627890197243" fill="#fed579" stroke="#000" stroke-width="1"/><polygon points="129.53833323661604,238.52780799634994 166.51251571755932,301.4271502886066 168.9104903543172,229.75892779216286" fill="#67c8de" stroke="#000" stroke-width="1"/><polygon points="166.51251571755932,301.4271502886066 168.9104903543172,229.75892779216286 232.6230757494071,237.59627890197243" fill="#a7dcc3" stroke="#000" stroke-width="1"/><polygon points="129.53833323661604,238.52780799634994 166.51251571755932,301.4271502886066 232.6230757494071,237.59627890197243" fill="#67c8de" stroke="#000" stroke-width="1"/><polygon points="168.9104903543172,229.75892779216286 232.6230757494071,237.59627890197243 261.40644012272867,233.2425457121854" fill="#a7dcc3" stroke="#000" stroke-width="1"/><polygon points="230.73262298571413,330.78734367673275 232.6230757494071,237.59627890197243 261.40644012272867,233.2425457121854" fill="#6ddbd3" stroke="#000" stroke-width="1"/><polygon points="232.6230757494071,237.59627890197243 261.40644012272867,233.2425457121854 261.7800516158757,336.8835857856453" fill="#6ddbd3" stroke="#000" stroke-width="1"/><polygon points="232.6230757494071,237.59627890197243 261.40644012272867,233.2425457121854 296.47325649579744,327.6974380378703" fill="#fed579" stroke="#000" stroke-width="1"/><polygon points="129.53833323661604,238.52780799634994 168.9104903543172,229.75892779216286 232.6230757494071,237.59627890197243" fill="#ffb2f5" stroke="#000" stroke-width="1"/><polygon points="137.99306122766205,193.85435143692203 168.9104903543172,229.75892779216286 232.6230757494071,237.59627890197243" fill="#a7dcc3" stroke="#000" stroke-width="1"/><polygon points="57.09616491420768,90.15425201298935 168.9104903543172,229.75892779216286 232.6230757494071,237.59627890197243" fill="#67c8de" stroke="#000" stroke-width="1"/><polygon points="230.73262298571413,330.78734367673275 232.6230757494071,237.59627890197243 261.7800516158757,336.8835857856453" fill="#67c8de" stroke="#000" stroke-width="1"/><polygon points="230.73262298571413,330.78734367673275 232.6230757494071,237.59627890197243 296.47325649579744,327.6974380378703" fill="#fed579" stroke="#000" stroke-width="1"/><polygon points="129.53833323661604,238.52780799634994 137.99306122766205,193.85435143692203 232.6230757494071,237.59627890197243" fill="#76b3ff" stroke="#000" stroke-width="1"/><polygon points="57.09616491420768,90.15425201298935 129.53833323661604,238.52780799634994 232.6230757494071,237.59627890197243" fill="#ffb2f5" stroke="#000" stroke-width="1"/><polygon points="232.6230757494071,237.59627890197243 261.7800516158757,336.8835857856453 296.47325649579744,327.6974380378703" fill="#a7dcc3" stroke="#000" stroke-width="1"/><polygon points="57.09616491420768,90.15425201298935 137.99306122766205,193.85435143692203 232.6230757494071,237.59627890197243" fill="#a7dcc3" stroke="#000" stroke-width="1"/><polygon points="57.09616491420768,90.15425201298935 103.92845325812566,94.22695863082855 135.51999137860176,134.2510522152973" fill="#6ddbd3" stroke="#000" stroke-width="1"/><polygon points="57.09616491420768,90.15425201298935 103.92845325812566,94.22695863082855 137.99306122766205,193.85435143692203" fill="#fed579" stroke="#000" stroke-width="1"/><polygon points="57.09616491420768,90.15425201298935 103.92845325812566,94.22695863082855 232.5,30" fill="#fed579" stroke="#000" stroke-width="1"/><polygon points="57.09616491420768,90.15425201298935 135.51999137860176,134.2510522152973 137.99306122766205,193.85435143692203" fill="#6ddbd3" stroke="#000" stroke-width="1"/><polygon points="57.09616491420768,90.15425201298935 129.53833323661604,238.52780799634994 135.51999137860176,134.2510522152973" fill="#76b3ff" stroke="#000" stroke-width="1"/><polygon points="57.09616491420768,90.15425201298935 135.51999137860176,134.2510522152973 168.9104903543172,229.75892779216286" fill="#76b3ff" stroke="#000" stroke-width="1"/><polygon points="57.09616491420768,90.15425201298935 135.51999137860176,134.2510522152973 232.5,30" fill="#76b3ff" stroke="#000" stroke-width="1"/><polygon points="57.09616491420768,90.15425201298935 129.53833323661604,238.52780799634994 137.99306122766205,193.85435143692203" fill="#fed579" stroke="#000" stroke-width="1"/><polygon points="57.09616491420768,90.15425201298935 137.99306122766205,193.85435143692203 168.9104903543172,229.75892779216286" fill="#6ddbd3" stroke="#000" stroke-width="1"/><polygon points="30,266.25 57.09616491420768,90.15425201298935 129.53833323661604,238.52780799634994" fill="#76b3ff" stroke="#000" stroke-width="1"/><polygon points="57.09616491420768,90.15425201298935 129.53833323661604,238.52780799634994 168.9104903543172,229.75892779216286" fill="#fed579" stroke="#000" stroke-width="1"/><polygon points="30,367.5 96.68947975368937,428.1601156170427 101.11951658933755,403.51064269958727" fill="#ffb2f5" stroke="#000" stroke-width="1"/><polygon points="30,468.75 96.68947975368937,428.1601156170427 101.11951658933755,403.51064269958727" fill="#76b3ff" stroke="#000" stroke-width="1"/><polygon points="67.28533742742121,495.4923793358619 96.68947975368937,428.1601156170427 101.11951658933755,403.51064269958727" fill="#6ddbd3" stroke="#000" stroke-width="1"/><polygon points="30,502.5 96.68947975368937,428.1601156170427 101.11951658933755,403.51064269958727" fill="#a7dcc3" stroke="#000" stroke-width="1"/><polygon points="30,367.5 30,468.75 101.11951658933755,403.51064269958727" fill="#a7dcc3" stroke="#000" stroke-width="1"/><polygon points="30,367.5 67.28533742742121,495.4923793358619 101.11951658933755,403.51064269958727" fill="#ffb2f5" stroke="#000" stroke-width="1"/><polygon points="30,367.5 30,502.5 101.11951658933755,403.51064269958727" fill="#a7dcc3" stroke="#000" stroke-width="1"/><polygon points="30,468.75 67.28533742742121,495.4923793358619 101.11951658933755,403.51064269958727" fill="#fed579" stroke="#000" stroke-width="1"/><polygon points="30,468.75 30,502.5 101.11951658933755,403.51064269958727" fill="#fed579" stroke="#000" stroke-width="1"/><polygon points="30,502.5 67.28533742742121,495.4923793358619 101.11951658933755,403.51064269958727" fill="#76b3ff" stroke="#000" stroke-width="1"/><polygon points="30,266.25 30,367.5 30,502.5" fill="#6ddbd3" stroke="#000" stroke-width="1"/><polygon points="230.73262298571413,330.78734367673275 261.7800516158757,336.8835857856453 296.47325649579744,327.6974380378703" fill="#6ddbd3" stroke="#000" stroke-width="1"/><polygon points="230.73262298571413,330.78734367673275 237.20370076721878,404.76965076947687 261.7800516158757,336.8835857856453" fill="#ff8989" stroke="#000" stroke-width="1"/><polygon points="230.73262298571413,330.78734367673275 261.40644012272867,233.2425457121854 261.7800516158757,336.8835857856453" fill="#a7dcc3" stroke="#000" stroke-width="1"/><polygon points="230.73262298571413,330.78734367673275 237.20370076721878,404.76965076947687 296.47325649579744,327.6974380378703" fill="#6ddbd3" stroke="#000" stroke-width="1"/><polygon points="230.73262298571413,330.78734367673275 261.40644012272867,233.2425457121854 296.47325649579744,327.6974380378703" fill="#ffb2f5" stroke="#000" stroke-width="1"/><polygon points="30,367.5 30,468.75 96.68947975368937,428.1601156170427" fill="#ffb2f5" stroke="#000" stroke-width="1"/><polygon points="30,367.5 67.28533742742121,495.4923793358619 96.68947975368937,428.1601156170427" fill="#6ddbd3" stroke="#000" stroke-width="1"/><polygon points="30,367.5 30,502.5 96.68947975368937,428.1601156170427" fill="#76b3ff" stroke="#000" stroke-width="1"/><polygon points="30,367.5 30,468.75 67.28533742742121,495.4923793358619" fill="#a7dcc3" stroke="#000" stroke-width="1"/><polygon points="30,367.5 30,468.75 30,502.5" fill="#ffb2f5" stroke="#000" stroke-width="1"/><polygon points="30,367.5 30,502.5 67.28533742742121,495.4923793358619" fill="#6ddbd3" stroke="#000" stroke-width="1"/><polygon points="266.25,570 270.9456622359176,509.99791868422363 302.94459760365856,497.9178822056885" fill="#67c8de" stroke="#000" stroke-width="1"/><polygon points="266.25,570 270.9456622359176,509.99791868422363 293.2262424660874,474.94288607824524" fill="#a7dcc3" stroke="#000" stroke-width="1"/><polygon points="266.25,570 270.9456622359176,509.99791868422363 367.5,570" fill="#ffb2f5" stroke="#000" stroke-width="1"/><polygon points="172.7048065081199,509.5195314279788 266.25,570 270.9456622359176,509.99791868422363" fill="#6ddbd3" stroke="#000" stroke-width="1"/><polygon points="266.25,570 270.9456622359176,509.99791868422363 327.50959927291717,471.4391751216484" fill="#a7dcc3" stroke="#000" stroke-width="1"/><polygon points="266.25,570 293.2262424660874,474.94288607824524 302.94459760365856,497.9178822056885" fill="#ff8989" stroke="#000" stroke-width="1"/><polygon points="266.25,570 302.94459760365856,497.9178822056885 367.5,570" fill="#a7dcc3" stroke="#000" stroke-width="1"/><polygon points="266.25,570 302.94459760365856,497.9178822056885 327.50959927291717,471.4391751216484" fill="#76b3ff" stroke="#000" stroke-width="1"/><polygon points="266.25,570 302.94459760365856,497.9178822056885 372.5951429114603,501.2030930232668" fill="#ff8989" stroke="#000" stroke-width="1"/><polygon points="266.25,570 293.2262424660874,474.94288607824524 367.5,570" fill="#67c8de" stroke="#000" stroke-width="1"/><polygon points="172.7048065081199,509.5195314279788 266.25,570 293.2262424660874,474.94288607824524" fill="#6ddbd3" stroke="#000" stroke-width="1"/><polygon points="266.25,570 293.2262424660874,474.94288607824524 327.50959927291717,471.4391751216484" fill="#a7dcc3" stroke="#000" stroke-width="1"/><polygon points="266.25,570 327.50959927291717,471.4391751216484 367.5,570" fill="#a7dcc3" stroke="#000" stroke-width="1"/><polygon points="266.25,570 367.5,570 372.5951429114603,501.2030930232668" fill="#ffb2f5" stroke="#000" stroke-width="1"/><polygon points="30,502.5 172.7048065081199,509.5195314279788 266.25,570" fill="#ffb2f5" stroke="#000" stroke-width="1"/><polygon points="266.25,570 327.50959927291717,471.4391751216484 372.5951429114603,501.2030930232668" fill="#76b3ff" stroke="#000" stroke-width="1"/><polygon points="232.2952056516097,441.3836018872862 237.20370076721878,404.76965076947687 293.2262424660874,474.94288607824524" fill="#6ddbd3" stroke="#000" stroke-width="1"/><polygon points="172.7048065081199,509.5195314279788 232.2952056516097,441.3836018872862 237.20370076721878,404.76965076947687" fill="#67c8de" stroke="#000" stroke-width="1"/><polygon points="232.2952056516097,441.3836018872862 237.20370076721878,404.76965076947687 328.5014425088924,401.8535656053432" fill="#a7dcc3" stroke="#000" stroke-width="1"/><polygon points="232.2952056516097,441.3836018872862 270.9456622359176,509.99791868422363 293.2262424660874,474.94288607824524" fill="#67c8de" stroke="#000" stroke-width="1"/><polygon points="232.2952056516097,441.3836018872862 293.2262424660874,474.94288607824524 302.94459760365856,497.9178822056885" fill="#67c8de" stroke="#000" stroke-width="1"/><polygon points="172.7048065081199,509.5195314279788 232.2952056516097,441.3836018872862 293.2262424660874,474.94288607824524" fill="#67c8de" stroke="#000" stroke-width="1"/><polygon points="232.2952056516097,441.3836018872862 293.2262424660874,474.94288607824524 327.50959927291717,471.4391751216484" fill="#76b3ff" stroke="#000" stroke-width="1"/><polygon points="232.2952056516097,441.3836018872862 293.2262424660874,474.94288607824524 328.5014425088924,401.8535656053432" fill="#6ddbd3" stroke="#000" stroke-width="1"/><polygon points="232.2952056516097,441.3836018872862 270.9456622359176,509.99791868422363 302.94459760365856,497.9178822056885" fill="#76b3ff" stroke="#000" stroke-width="1"/><polygon points="172.7048065081199,509.5195314279788 232.2952056516097,441.3836018872862 270.9456622359176,509.99791868422363" fill="#ff8989" stroke="#000" stroke-width="1"/><polygon points="232.2952056516097,441.3836018872862 270.9456622359176,509.99791868422363 327.50959927291717,471.4391751216484" fill="#a7dcc3" stroke="#000" stroke-width="1"/><polygon points="232.2952056516097,441.3836018872862 302.94459760365856,497.9178822056885 327.50959927291717,471.4391751216484" fill="#76b3ff" stroke="#000" stroke-width="1"/><polygon points="30,502.5 172.7048065081199,509.5195314279788 232.2952056516097,441.3836018872862" fill="#a7dcc3" stroke="#000" stroke-width="1"/><polygon points="67.28533742742121,495.4923793358619 172.7048065081199,509.5195314279788 232.2952056516097,441.3836018872862" fill="#ff8989" stroke="#000" stroke-width="1"/><polygon points="232.2952056516097,441.3836018872862 327.50959927291717,471.4391751216484 328.5014425088924,401.8535656053432" fill="#76b3ff" stroke="#000" stroke-width="1"/><polygon points="30,502.5 67.28533742742121,495.4923793358619 232.2952056516097,441.3836018872862" fill="#76b3ff" stroke="#000" stroke-width="1"/><polygon points="328.5014425088924,401.8535656053432 374.67160677054693,403.31382007678735 398.0146774557755,399.55012647512" fill="#67c8de" stroke="#000" stroke-width="1"/><polygon points="327.50959927291717,471.4391751216484 328.5014425088924,401.8535656053432 374.67160677054693,403.31382007678735" fill="#a7dcc3" stroke="#000" stroke-width="1"/><polygon points="328.5014425088924,401.8535656053432 374.67160677054693,403.31382007678735 401.20880230336843,432.1305086912183" fill="#6ddbd3" stroke="#000" stroke-width="1"/><polygon points="327.50959927291717,471.4391751216484 328.5014425088924,401.8535656053432 398.0146774557755,399.55012647512" fill="#76b3ff" stroke="#000" stroke-width="1"/><polygon points="328.5014425088924,401.8535656053432 398.0146774557755,399.55012647512 401.20880230336843,432.1305086912183" fill="#6ddbd3" stroke="#000" stroke-width="1"/><polygon points="327.50959927291717,471.4391751216484 328.5014425088924,401.8535656053432 401.20880230336843,432.1305086912183" fill="#a7dcc3" stroke="#000" stroke-width="1"/><polygon points="293.2262424660874,474.94288607824524 327.50959927291717,471.4391751216484 328.5014425088924,401.8535656053432" fill="#a7dcc3" stroke="#000" stroke-width="1"/><polygon points="237.20370076721878,404.76965076947687 296.47325649579744,327.6974380378703 328.5014425088924,401.8535656053432" fill="#ff8989" stroke="#000" stroke-width="1"/><polygon points="261.7800516158757,336.8835857856453 296.47325649579744,327.6974380378703 328.5014425088924,401.8535656053432" fill="#fed579" stroke="#000" stroke-width="1"/><polygon points="237.20370076721878,404.76965076947687 293.2262424660874,474.94288607824524 328.5014425088924,401.8535656053432" fill="#6ddbd3" stroke="#000" stroke-width="1"/><polygon points="237.20370076721878,404.76965076947687 261.7800516158757,336.8835857856453 328.5014425088924,401.8535656053432" fill="#fed579" stroke="#000" stroke-width="1"/><polygon points="237.20370076721878,404.76965076947687 261.7800516158757,336.8835857856453 296.47325649579744,327.6974380378703" fill="#a7dcc3" stroke="#000" stroke-width="1"/><polygon points="261.40644012272867,233.2425457121854 261.7800516158757,336.8835857856453 296.47325649579744,327.6974380378703" fill="#ff8989" stroke="#000" stroke-width="1"/><polygon points="373.20731180211385,135.25684799922595 427.79115909025893,235.86959531279402 434.2450185344268,164.09393223106076" fill="#67c8de" stroke="#000" stroke-width="1"/><polygon points="427.79115909025893,235.86959531279402 434.2450185344268,164.09393223106076 500.3262634859109,130.97054586723053" fill="#fed579" stroke="#000" stroke-width="1"/><polygon points="427.79115909025893,235.86959531279402 434.2450185344268,164.09393223106076 466.0048831935701,94.51345663248239" fill="#76b3ff" stroke="#000" stroke-width="1"/><polygon points="427.79115909025893,235.86959531279402 500.3262634859109,130.97054586723053 510.07643161629323,301.172598763342" fill="#6ddbd3" stroke="#000" stroke-width="1"/><polygon points="427.79115909025893,235.86959531279402 428.6630314574004,394.46879477093006 510.07643161629323,301.172598763342" fill="#a7dcc3" stroke="#000" stroke-width="1"/><polygon points="373.20731180211385,135.25684799922595 427.79115909025893,235.86959531279402 500.3262634859109,130.97054586723053" fill="#fed579" stroke="#000" stroke-width="1"/><polygon points="373.20731180211385,135.25684799922595 427.79115909025893,235.86959531279402 466.0048831935701,94.51345663248239" fill="#6ddbd3" stroke="#000" stroke-width="1"/><polygon points="427.79115909025893,235.86959531279402 466.0048831935701,94.51345663248239 500.3262634859109,130.97054586723053" fill="#fed579" stroke="#000" stroke-width="1"/><polygon points="373.20731180211385,135.25684799922595 434.2450185344268,164.09393223106076 500.3262634859109,130.97054586723053" fill="#ffb2f5" stroke="#000" stroke-width="1"/><polygon points="373.20731180211385,135.25684799922595 434.2450185344268,164.09393223106076 466.0048831935701,94.51345663248239" fill="#6ddbd3" stroke="#000" stroke-width="1"/><polygon points="373.20731180211385,135.25684799922595 434.2450185344268,164.09393223106076 442.6744296915383,65.54840084640787" fill="#ff8989" stroke="#000" stroke-width="1"/><polygon points="334.2192296840209,101.8110718674501 373.20731180211385,135.25684799922595 434.2450185344268,164.09393223106076" fill="#ffb2f5" stroke="#000" stroke-width="1"/><polygon points="336.4060837064572,69.17703140865788 373.20731180211385,135.25684799922595 434.2450185344268,164.09393223106076" fill="#fed579" stroke="#000" stroke-width="1"/><polygon points="434.2450185344268,164.09393223106076 466.0048831935701,94.51345663248239 500.3262634859109,130.97054586723053" fill="#ffb2f5" stroke="#000" stroke-width="1"/><polygon points="434.2450185344268,164.09393223106076 442.6744296915383,65.54840084640787 500.3262634859109,130.97054586723053" fill="#6ddbd3" stroke="#000" stroke-width="1"/><polygon points="334.2192296840209,101.8110718674501 434.2450185344268,164.09393223106076 500.3262634859109,130.97054586723053" fill="#ffb2f5" stroke="#000" stroke-width="1"/><polygon points="336.4060837064572,69.17703140865788 434.2450185344268,164.09393223106076 500.3262634859109,130.97054586723053" fill="#a7dcc3" stroke="#000" stroke-width="1"/><polygon points="434.2450185344268,164.09393223106076 442.6744296915383,65.54840084640787 466.0048831935701,94.51345663248239" fill="#fed579" stroke="#000" stroke-width="1"/><polygon points="334.2192296840209,101.8110718674501 434.2450185344268,164.09393223106076 466.0048831935701,94.51345663248239" fill="#67c8de" stroke="#000" stroke-width="1"/><polygon points="336.4060837064572,69.17703140865788 434.2450185344268,164.09393223106076 466.0048831935701,94.51345663248239" fill="#ff8989" stroke="#000" stroke-width="1"/><polygon points="334.2192296840209,101.8110718674501 434.2450185344268,164.09393223106076 442.6744296915383,65.54840084640787" fill="#fed579" stroke="#000" stroke-width="1"/><polygon points="336.4060837064572,69.17703140865788 434.2450185344268,164.09393223106076 442.6744296915383,65.54840084640787" fill="#6ddbd3" stroke="#000" stroke-width="1"/><polygon points="334.2192296840209,101.8110718674501 336.4060837064572,69.17703140865788 434.2450185344268,164.09393223106076" fill="#ff8989" stroke="#000" stroke-width="1"/><polygon points="505.58452098074196,535.064947151993 507.0712012120402,471.19965455774127 543.7246590218633,533.0560532330704" fill="#67c8de" stroke="#000" stroke-width="1"/><polygon points="505.58452098074196,535.064947151993 543.7246590218633,533.0560532330704 570,502.5" fill="#a7dcc3" stroke="#000" stroke-width="1"/><polygon points="505.58452098074196,535.064947151993 537.7466031784992,403.0716125476688 543.7246590218633,533.0560532330704" fill="#ffb2f5" stroke="#000" stroke-width="1"/><polygon points="372.5951429114603,501.2030930232668 505.58452098074196,535.064947151993 543.7246590218633,533.0560532330704" fill="#fed579" stroke="#000" stroke-width="1"/><polygon points="367.5,570 505.58452098074196,535.064947151993 543.7246590218633,533.0560532330704" fill="#ffb2f5" stroke="#000" stroke-width="1"/><polygon points="401.20880230336843,432.1305086912183 505.58452098074196,535.064947151993 543.7246590218633,533.0560532330704" fill="#a7dcc3" stroke="#000" stroke-width="1"/><polygon points="505.58452098074196,535.064947151993 507.0712012120402,471.19965455774127 570,502.5" fill="#67c8de" stroke="#000" stroke-width="1"/><polygon points="505.58452098074196,535.064947151993 507.0712012120402,471.19965455774127 537.7466031784992,403.0716125476688" fill="#76b3ff" stroke="#000" stroke-width="1"/><polygon points="372.5951429114603,501.2030930232668 505.58452098074196,535.064947151993 507.0712012120402,471.19965455774127" fill="#76b3ff" stroke="#000" stroke-width="1"/><polygon points="401.20880230336843,432.1305086912183 505.58452098074196,535.064947151993 507.0712012120402,471.19965455774127" fill="#fed579" stroke="#000" stroke-width="1"/><polygon points="505.58452098074196,535.064947151993 537.7466031784992,403.0716125476688 570,502.5" fill="#fed579" stroke="#000" stroke-width="1"/><polygon points="372.5951429114603,501.2030930232668 505.58452098074196,535.064947151993 570,502.5" fill="#a7dcc3" stroke="#000" stroke-width="1"/><polygon points="401.20880230336843,432.1305086912183 505.58452098074196,535.064947151993 570,502.5" fill="#ff8989" stroke="#000" stroke-width="1"/><polygon points="367.5,570 372.5951429114603,501.2030930232668 505.58452098074196,535.064947151993" fill="#76b3ff" stroke="#000" stroke-width="1"/><polygon points="372.5951429114603,501.2030930232668 401.20880230336843,432.1305086912183 505.58452098074196,535.064947151993" fill="#76b3ff" stroke="#000" stroke-width="1"/><polygon points="367.5,570 401.20880230336843,432.1305086912183 505.58452098074196,535.064947151993" fill="#ff8989" stroke="#000" stroke-width="1"/><polygon points="507.0712012120402,471.19965455774127 537.7466031784992,403.0716125476688 570,333.75" fill="#ffb2f5" stroke="#000" stroke-width="1"/><polygon points="507.0712012120402,471.19965455774127 537.7466031784992,403.0716125476688 570,502.5" fill="#76b3ff" stroke="#000" stroke-width="1"/><polygon points="507.0712012120402,471.19965455774127 537.7466031784992,403.0716125476688 543.7246590218633,533.0560532330704" fill="#67c8de" stroke="#000" stroke-width="1"/><polygon points="510.07643161629323,301.172598763342 537.7466031784992,403.0716125476688 570,333.75" fill="#fed579" stroke="#000" stroke-width="1"/><polygon points="537.7466031784992,403.0716125476688 570,333.75 570,502.5" fill="#ffb2f5" stroke="#000" stroke-width="1"/><polygon points="537.7466031784992,403.0716125476688 543.7246590218633,533.0560532330704 570,502.5" fill="#67c8de" stroke="#000" stroke-width="1"/><polygon points="129.53833323661604,238.52780799634994 137.99306122766205,193.85435143692203 168.9104903543172,229.75892779216286" fill="#67c8de" stroke="#000" stroke-width="1"/><polygon points="129.53833323661604,238.52780799634994 135.51999137860176,134.2510522152973 168.9104903543172,229.75892779216286" fill="#ffb2f5" stroke="#000" stroke-width="1"/><polygon points="129.53833323661604,238.52780799634994 135.51999137860176,134.2510522152973 137.99306122766205,193.85435143692203" fill="#67c8de" stroke="#000" stroke-width="1"/><polygon points="172.7048065081199,509.5195314279788 270.9456622359176,509.99791868422363 293.2262424660874,474.94288607824524" fill="#ffb2f5" stroke="#000" stroke-width="1"/><polygon points="67.28533742742121,495.4923793358619 96.68947975368937,428.1601156170427 172.7048065081199,509.5195314279788" fill="#ff8989" stroke="#000" stroke-width="1"/><polygon points="30,502.5 67.28533742742121,495.4923793358619 172.7048065081199,509.5195314279788" fill="#67c8de" stroke="#000" stroke-width="1"/><polygon points="30,502.5 96.68947975368937,428.1601156170427 172.7048065081199,509.5195314279788" fill="#67c8de" stroke="#000" stroke-width="1"/><polygon points="172.7048065081199,509.5195314279788 237.20370076721878,404.76965076947687 293.2262424660874,474.94288607824524" fill="#a7dcc3" stroke="#000" stroke-width="1"/><polygon points="334.2192296840209,101.8110718674501 336.4060837064572,69.17703140865788 373.20731180211385,135.25684799922595" fill="#ff8989" stroke="#000" stroke-width="1"/><polygon points="334.2192296840209,101.8110718674501 336.4060837064572,69.17703140865788 442.6744296915383,65.54840084640787" fill="#ffb2f5" stroke="#000" stroke-width="1"/><polygon points="232.5,30 334.2192296840209,101.8110718674501 336.4060837064572,69.17703140865788" fill="#6ddbd3" stroke="#000" stroke-width="1"/><polygon points="334.2192296840209,101.8110718674501 336.4060837064572,69.17703140865788 466.0048831935701,94.51345663248239" fill="#76b3ff" stroke="#000" stroke-width="1"/><polygon points="334.2192296840209,101.8110718674501 336.4060837064572,69.17703140865788 500.3262634859109,130.97054586723053" fill="#fed579" stroke="#000" stroke-width="1"/><polygon points="336.4060837064572,69.17703140865788 373.20731180211385,135.25684799922595 442.6744296915383,65.54840084640787" fill="#a7dcc3" stroke="#000" stroke-width="1"/><polygon points="232.5,30 336.4060837064572,69.17703140865788 373.20731180211385,135.25684799922595" fill="#ffb2f5" stroke="#000" stroke-width="1"/><polygon points="336.4060837064572,69.17703140865788 373.20731180211385,135.25684799922595 466.0048831935701,94.51345663248239" fill="#ff8989" stroke="#000" stroke-width="1"/><polygon points="336.4060837064572,69.17703140865788 373.20731180211385,135.25684799922595 500.3262634859109,130.97054586723053" fill="#fed579" stroke="#000" stroke-width="1"/><polygon points="232.5,30 336.4060837064572,69.17703140865788 442.6744296915383,65.54840084640787" fill="#fed579" stroke="#000" stroke-width="1"/><polygon points="336.4060837064572,69.17703140865788 442.6744296915383,65.54840084640787 466.0048831935701,94.51345663248239" fill="#6ddbd3" stroke="#000" stroke-width="1"/><polygon points="336.4060837064572,69.17703140865788 442.6744296915383,65.54840084640787 500.3262634859109,130.97054586723053" fill="#ffb2f5" stroke="#000" stroke-width="1"/><polygon points="336.4060837064572,69.17703140865788 466.0048831935701,94.51345663248239 500.3262634859109,130.97054586723053" fill="#ffb2f5" stroke="#000" stroke-width="1"/><polygon points="398.0146774557755,399.55012647512 401.20880230336843,432.1305086912183 428.6630314574004,394.46879477093006" fill="#ff8989" stroke="#000" stroke-width="1"/><polygon points="374.67160677054693,403.31382007678735 398.0146774557755,399.55012647512 428.6630314574004,394.46879477093006" fill="#6ddbd3" stroke="#000" stroke-width="1"/><polygon points="398.0146774557755,399.55012647512 428.6630314574004,394.46879477093006 507.0712012120402,471.19965455774127" fill="#ffb2f5" stroke="#000" stroke-width="1"/><polygon points="374.67160677054693,403.31382007678735 401.20880230336843,432.1305086912183 428.6630314574004,394.46879477093006" fill="#6ddbd3" stroke="#000" stroke-width="1"/><polygon points="401.20880230336843,432.1305086912183 428.6630314574004,394.46879477093006 507.0712012120402,471.19965455774127" fill="#a7dcc3" stroke="#000" stroke-width="1"/><polygon points="401.20880230336843,432.1305086912183 428.6630314574004,394.46879477093006 570,502.5" fill="#67c8de" stroke="#000" stroke-width="1"/><polygon points="428.6630314574004,394.46879477093006 507.0712012120402,471.19965455774127 570,333.75" fill="#6ddbd3" stroke="#000" stroke-width="1"/><polygon points="428.6630314574004,394.46879477093006 510.07643161629323,301.172598763342 570,333.75" fill="#6ddbd3" stroke="#000" stroke-width="1"/><polygon points="428.6630314574004,394.46879477093006 570,333.75 570,502.5" fill="#a7dcc3" stroke="#000" stroke-width="1"/><polygon points="428.6630314574004,394.46879477093006 507.0712012120402,471.19965455774127 570,502.5" fill="#ff8989" stroke="#000" stroke-width="1"/><polygon points="302.94459760365856,497.9178822056885 367.5,570 372.5951429114603,501.2030930232668" fill="#67c8de" stroke="#000" stroke-width="1"/><polygon points="327.50959927291717,471.4391751216484 367.5,570 372.5951429114603,501.2030930232668" fill="#a7dcc3" stroke="#000" stroke-width="1"/><polygon points="367.5,570 372.5951429114603,501.2030930232668 401.20880230336843,432.1305086912183" fill="#76b3ff" stroke="#000" stroke-width="1"/><polygon points="367.5,570 372.5951429114603,501.2030930232668 543.7246590218633,533.0560532330704" fill="#ffb2f5" stroke="#000" stroke-width="1"/><polygon points="302.94459760365856,497.9178822056885 327.50959927291717,471.4391751216484 367.5,570" fill="#6ddbd3" stroke="#000" stroke-width="1"/><polygon points="270.9456622359176,509.99791868422363 302.94459760365856,497.9178822056885 367.5,570" fill="#6ddbd3" stroke="#000" stroke-width="1"/><polygon points="293.2262424660874,474.94288607824524 302.94459760365856,497.9178822056885 367.5,570" fill="#ff8989" stroke="#000" stroke-width="1"/><polygon points="270.9456622359176,509.99791868422363 327.50959927291717,471.4391751216484 367.5,570" fill="#67c8de" stroke="#000" stroke-width="1"/><polygon points="293.2262424660874,474.94288607824524 327.50959927291717,471.4391751216484 367.5,570" fill="#a7dcc3" stroke="#000" stroke-width="1"/><polygon points="327.50959927291717,471.4391751216484 367.5,570 401.20880230336843,432.1305086912183" fill="#ff8989" stroke="#000" stroke-width="1"/><polygon points="270.9456622359176,509.99791868422363 293.2262424660874,474.94288607824524 367.5,570" fill="#fed579" stroke="#000" stroke-width="1"/><polygon points="367.5,570 401.20880230336843,432.1305086912183 543.7246590218633,533.0560532330704" fill="#ff8989" stroke="#000" stroke-width="1"/><polygon points="500.3262634859109,130.97054586723053 510.07643161629323,301.172598763342 570,333.75" fill="#a7dcc3" stroke="#000" stroke-width="1"/><polygon points="507.0712012120402,471.19965455774127 570,333.75 570,502.5" fill="#ff8989" stroke="#000" stroke-width="1"/><polygon points="135.51999137860176,134.2510522152973 137.99306122766205,193.85435143692203 168.9104903543172,229.75892779216286" fill="#fed579" stroke="#000" stroke-width="1"/><polygon points="103.92845325812566,94.22695863082855 135.51999137860176,134.2510522152973 137.99306122766205,193.85435143692203" fill="#67c8de" stroke="#000" stroke-width="1"/><polygon points="507.0712012120402,471.19965455774127 543.7246590218633,533.0560532330704 570,502.5" fill="#ff8989" stroke="#000" stroke-width="1"/><polygon points="401.20880230336843,432.1305086912183 507.0712012120402,471.19965455774127 570,502.5" fill="#76b3ff" stroke="#000" stroke-width="1"/><polygon points="372.5951429114603,501.2030930232668 507.0712012120402,471.19965455774127 570,502.5" fill="#76b3ff" stroke="#000" stroke-width="1"/><polygon points="401.20880230336843,432.1305086912183 507.0712012120402,471.19965455774127 543.7246590218633,533.0560532330704" fill="#67c8de" stroke="#000" stroke-width="1"/><polygon points="372.5951429114603,501.2030930232668 507.0712012120402,471.19965455774127 543.7246590218633,533.0560532330704" fill="#6ddbd3" stroke="#000" stroke-width="1"/><polygon points="398.0146774557755,399.55012647512 401.20880230336843,432.1305086912183 507.0712012120402,471.19965455774127" fill="#fed579" stroke="#000" stroke-width="1"/><polygon points="372.5951429114603,501.2030930232668 401.20880230336843,432.1305086912183 507.0712012120402,471.19965455774127" fill="#ffb2f5" stroke="#000" stroke-width="1"/><polygon points="372.5951429114603,501.2030930232668 398.0146774557755,399.55012647512 507.0712012120402,471.19965455774127" fill="#67c8de" stroke="#000" stroke-width="1"/><polygon points="302.94459760365856,497.9178822056885 327.50959927291717,471.4391751216484 372.5951429114603,501.2030930232668" fill="#67c8de" stroke="#000" stroke-width="1"/><polygon points="327.50959927291717,471.4391751216484 372.5951429114603,501.2030930232668 401.20880230336843,432.1305086912183" fill="#a7dcc3" stroke="#000" stroke-width="1"/><polygon points="327.50959927291717,471.4391751216484 372.5951429114603,501.2030930232668 398.0146774557755,399.55012647512" fill="#76b3ff" stroke="#000" stroke-width="1"/><polygon points="372.5951429114603,501.2030930232668 401.20880230336843,432.1305086912183 570,502.5" fill="#76b3ff" stroke="#000" stroke-width="1"/><polygon points="372.5951429114603,501.2030930232668 401.20880230336843,432.1305086912183 543.7246590218633,533.0560532330704" fill="#6ddbd3" stroke="#000" stroke-width="1"/><polygon points="372.5951429114603,501.2030930232668 398.0146774557755,399.55012647512 401.20880230336843,432.1305086912183" fill="#a7dcc3" stroke="#000" stroke-width="1"/><polygon points="372.5951429114603,501.2030930232668 543.7246590218633,533.0560532330704 570,502.5" fill="#76b3ff" stroke="#000" stroke-width="1"/><polygon points="442.6744296915383,65.54840084640787 466.0048831935701,94.51345663248239 500.3262634859109,130.97054586723053" fill="#a7dcc3" stroke="#000" stroke-width="1"/><polygon points="373.20731180211385,135.25684799922595 442.6744296915383,65.54840084640787 466.0048831935701,94.51345663248239" fill="#fed579" stroke="#000" stroke-width="1"/><polygon points="334.2192296840209,101.8110718674501 442.6744296915383,65.54840084640787 466.0048831935701,94.51345663248239" fill="#76b3ff" stroke="#000" stroke-width="1"/><polygon points="373.20731180211385,135.25684799922595 466.0048831935701,94.51345663248239 500.3262634859109,130.97054586723053" fill="#67c8de" stroke="#000" stroke-width="1"/><polygon points="334.2192296840209,101.8110718674501 466.0048831935701,94.51345663248239 500.3262634859109,130.97054586723053" fill="#ffb2f5" stroke="#000" stroke-width="1"/><polygon points="334.2192296840209,101.8110718674501 373.20731180211385,135.25684799922595 466.0048831935701,94.51345663248239" fill="#ffb2f5" stroke="#000" stroke-width="1"/><polygon points="270.9456622359176,509.99791868422363 293.2262424660874,474.94288607824524 302.94459760365856,497.9178822056885" fill="#76b3ff" stroke="#000" stroke-width="1"/><polygon points="270.9456622359176,509.99791868422363 302.94459760365856,497.9178822056885 327.50959927291717,471.4391751216484" fill="#ff8989" stroke="#000" stroke-width="1"/><polygon points="270.9456622359176,509.99791868422363 293.2262424660874,474.94288607824524 327.50959927291717,471.4391751216484" fill="#76b3ff" stroke="#000" stroke-width="1"/><polygon points="373.20731180211385,135.25684799922595 442.6744296915383,65.54840084640787 500.3262634859109,130.97054586723053" fill="#6ddbd3" stroke="#000" stroke-width="1"/><polygon points="334.2192296840209,101.8110718674501 442.6744296915383,65.54840084640787 500.3262634859109,130.97054586723053" fill="#76b3ff" stroke="#000" stroke-width="1"/><polygon points="334.2192296840209,101.8110718674501 373.20731180211385,135.25684799922595 500.3262634859109,130.97054586723053" fill="#ffb2f5" stroke="#000" stroke-width="1"/><polygon points="401.20880230336843,432.1305086912183 543.7246590218633,533.0560532330704 570,502.5" fill="#67c8de" stroke="#000" stroke-width="1"/><polygon points="334.2192296840209,101.8110718674501 373.20731180211385,135.25684799922595 442.6744296915383,65.54840084640787" fill="#ff8989" stroke="#000" stroke-width="1"/><polygon points="232.5,30 334.2192296840209,101.8110718674501 373.20731180211385,135.25684799922595" fill="#ff8989" stroke="#000" stroke-width="1"/><polygon points="232.5,30 373.20731180211385,135.25684799922595 442.6744296915383,65.54840084640787" fill="#ffb2f5" stroke="#000" stroke-width="1"/><polygon points="293.2262424660874,474.94288607824524 302.94459760365856,497.9178822056885 327.50959927291717,471.4391751216484" fill="#a7dcc3" stroke="#000" stroke-width="1"/><polygon points="327.50959927291717,471.4391751216484 374.67160677054693,403.31382007678735 401.20880230336843,432.1305086912183" fill="#ffb2f5" stroke="#000" stroke-width="1"/><polygon points="327.50959927291717,471.4391751216484 374.67160677054693,403.31382007678735 398.0146774557755,399.55012647512" fill="#67c8de" stroke="#000" stroke-width="1"/><polygon points="327.50959927291717,471.4391751216484 398.0146774557755,399.55012647512 401.20880230336843,432.1305086912183" fill="#ffb2f5" stroke="#000" stroke-width="1"/><polygon points="374.67160677054693,403.31382007678735 398.0146774557755,399.55012647512 401.20880230336843,432.1305086912183" fill="#a7dcc3" stroke="#000" stroke-width="1"/><polygon points="232.5,30 334.2192296840209,101.8110718674501 442.6744296915383,65.54840084640787" fill="#ffb2f5" stroke="#000" stroke-width="1"/><polygon points="103.92845325812566,94.22695863082855 135.51999137860176,134.2510522152973 232.5,30" fill="#fed579" stroke="#000" stroke-width="1"/><polygon points="30,468.75 30,502.5 67.28533742742121,495.4923793358619" fill="#fed579" stroke="#000" stroke-width="1"/><polygon points="30,468.75 30,502.5 96.68947975368937,428.1601156170427" fill="#76b3ff" stroke="#000" stroke-width="1"/><polygon points="30,502.5 67.28533742742121,495.4923793358619 96.68947975368937,428.1601156170427" fill="#6ddbd3" stroke="#000" stroke-width="1"/><polygon points="30,468.75 67.28533742742121,495.4923793358619 96.68947975368937,428.1601156170427" fill="#6ddbd3" stroke="#000" stroke-width="1"/></svg>