<svg xmlns="http://www.w3.org/2000/svg" width="600" height="600">
                <rect width="100%" height="100%" fill="#000"/><polygon points="84.00000000000001,84.00000000000001 84.00000000000001,111.00000000000001 111.00000000000001,84.00000000000001" fill="#7a7ff2" stroke="#000" stroke-width="1"/><polygon points="84.00000000000001,84.00000000000001 84.00000000000001,111.00000000000001 134.3264752112837,136.43279189967336" fill="#9149db" stroke="#000" stroke-width="1"/><polygon points="84.00000000000001,84.00000000000001 84.00000000000001,111.00000000000001 110.48368230977603,165.30442036210115" fill="#7d93f6" stroke="#000" stroke-width="1"/><polygon points="84.00000000000001,84.00000000000001 84.00000000000001,111.00000000000001 192,84.00000000000001" fill="#9149db" stroke="#000" stroke-width="1"/><polygon points="84.00000000000001,84.00000000000001 84.00000000000001,111.00000000000001 189.78597137964545,111.26740743981466" fill="#604ced" stroke="#000" stroke-width="1"/><polygon points="84.00000000000001,84.00000000000001 111.00000000000001,84.00000000000001 134.3264752112837,136.43279189967336" fill="#fb7587" stroke="#000" stroke-width="1"/><polygon points="84.00000000000001,84.00000000000001 110.48368230977603,165.30442036210115 111.00000000000001,84.00000000000001" fill="#7d93f6" stroke="#000" stroke-width="1"/><polygon points="84.00000000000001,84.00000000000001 111.00000000000001,84.00000000000001 192,84.00000000000001" fill="#7d93f6" stroke="#000" stroke-width="1"/><polygon points="84.00000000000001,84.00000000000001 111.00000000000001,84.00000000000001 189.78597137964545,111.26740743981466" fill="#7a7ff2" stroke="#000" stroke-width="1"/><polygon points="84.00000000000001,84.00000000000001 110.48368230977603,165.30442036210115 134.3264752112837,136.43279189967336" fill="#242cbe" stroke="#000" stroke-width="1"/><polygon points="84.00000000000001,84.00000000000001 134.3264752112837,136.43279189967336 192,84.00000000000001" fill="#604ced" stroke="#000" stroke-width="1"/><polygon points="84.00000000000001,84.00000000000001 134.3264752112837,136.43279189967336 189.78597137964545,111.26740743981466" fill="#242cbe" stroke="#000" stroke-width="1"/><polygon points="84.00000000000001,84.00000000000001 110.48368230977603,165.30442036210115 192,84.00000000000001" fill="#7a7ff2" stroke="#000" stroke-width="1"/><polygon points="84.00000000000001,84.00000000000001 110.48368230977603,165.30442036210115 189.78597137964545,111.26740743981466" fill="#f4a7fd" stroke="#000" stroke-width="1"/><polygon points="84.00000000000001,84.00000000000001 189.78597137964545,111.26740743981466 192,84.00000000000001" fill="#fb7587" stroke="#000" stroke-width="1"/><polygon points="84.00000000000001,516 106.6022095755396,431.77104447781664 110.79619901917599,412.2681965356101" fill="#242cbe" stroke="#000" stroke-width="1"/><polygon points="84.00000000000001,516 106.6022095755396,431.77104447781664 111.7963752483378,382.7254599694967" fill="#f4a7fd" stroke="#000" stroke-width="1"/><polygon points="84.00000000000001,516 106.6022095755396,431.77104447781664 142.11043078324158,379.17154699080237" fill="#9149db" stroke="#000" stroke-width="1"/><polygon points="84.00000000000001,516 110.79619901917599,412.2681965356101 111.7963752483378,382.7254599694967" fill="#242cbe" stroke="#000" stroke-width="1"/><polygon points="84.00000000000001,516 110.79619901917599,412.2681965356101 142.11043078324158,379.17154699080237" fill="#7a7ff2" stroke="#000" stroke-width="1"/><polygon points="84.00000000000001,516 111.7963752483378,382.7254599694967 142.11043078324158,379.17154699080237" fill="#7d93f6" stroke="#000" stroke-width="1"/><polygon points="488.0773173599203,114.33490694766088 516,84.00000000000001 516,138" fill="#242cbe" stroke="#000" stroke-width="1"/><polygon points="431.23476009360854,112.29946599539915 488.0773173599203,114.33490694766088 516,84.00000000000001" fill="#604ced" stroke="#000" stroke-width="1"/><polygon points="410.1653016156314,111.58401532694239 488.0773173599203,114.33490694766088 516,84.00000000000001" fill="#242cbe" stroke="#000" stroke-width="1"/><polygon points="488.0773173599203,114.33490694766088 489.61410443430304,192.73149394814757 516,84.00000000000001" fill="#7d93f6" stroke="#000" stroke-width="1"/><polygon points="431.23476009360854,112.29946599539915 516,84.00000000000001 516,138" fill="#9149db" stroke="#000" stroke-width="1"/><polygon points="410.1653016156314,111.58401532694239 516,84.00000000000001 516,138" fill="#fb7587" stroke="#000" stroke-width="1"/><polygon points="489.61410443430304,192.73149394814757 516,84.00000000000001 516,138" fill="#604ced" stroke="#000" stroke-width="1"/><polygon points="484.36332203628945,217.76573651390927 516,84.00000000000001 516,138" fill="#f4a7fd" stroke="#000" stroke-width="1"/><polygon points="410.1653016156314,111.58401532694239 431.23476009360854,112.29946599539915 516,84.00000000000001" fill="#9149db" stroke="#000" stroke-width="1"/><polygon points="431.23476009360854,112.29946599539915 489.61410443430304,192.73149394814757 516,84.00000000000001" fill="#fb7587" stroke="#000" stroke-width="1"/><polygon points="484.36332203628945,217.76573651390927 489.61410443430304,192.73149394814757 516,84.00000000000001" fill="#7a7ff2" stroke="#000" stroke-width="1"/><polygon points="411.1087778338375,492.35147540633 487.80079978644477,490.7502385254651 516,516" fill="#242cbe" stroke="#000" stroke-width="1"/><polygon points="410.4101764940479,431.9521405709828 487.80079978644477,490.7502385254651 516,516" fill="#7a7ff2" stroke="#000" stroke-width="1"/><polygon points="437.6715395881686,403.54055816469327 487.80079978644477,490.7502385254651 516,516" fill="#9149db" stroke="#000" stroke-width="1"/><polygon points="377.2719139693967,460.3440047771958 487.80079978644477,490.7502385254651 516,516" fill="#fb7587" stroke="#000" stroke-width="1"/><polygon points="354,516 487.80079978644477,490.7502385254651 516,516" fill="#604ced" stroke="#000" stroke-width="1"/><polygon points="405.20516131491706,381.4840951469605 487.80079978644477,490.7502385254651 516,516" fill="#7d93f6" stroke="#000" stroke-width="1"/><polygon points="410.4101764940479,431.9521405709828 411.1087778338375,492.35147540633 516,516" fill="#9149db" stroke="#000" stroke-width="1"/><polygon points="411.1087778338375,492.35147540633 437.6715395881686,403.54055816469327 516,516" fill="#9149db" stroke="#000" stroke-width="1"/><polygon points="377.2719139693967,460.3440047771958 411.1087778338375,492.35147540633 516,516" fill="#7a7ff2" stroke="#000" stroke-width="1"/><polygon points="354,516 411.1087778338375,492.35147540633 516,516" fill="#9149db" stroke="#000" stroke-width="1"/><polygon points="410.4101764940479,431.9521405709828 437.6715395881686,403.54055816469327 516,516" fill="#7d93f6" stroke="#000" stroke-width="1"/><polygon points="377.2719139693967,460.3440047771958 410.4101764940479,431.9521405709828 516,516" fill="#9149db" stroke="#000" stroke-width="1"/><polygon points="354,516 410.4101764940479,431.9521405709828 516,516" fill="#fb7587" stroke="#000" stroke-width="1"/><polygon points="405.20516131491706,381.4840951469605 410.4101764940479,431.9521405709828 516,516" fill="#7d93f6" stroke="#000" stroke-width="1"/><polygon points="377.2719139693967,460.3440047771958 437.6715395881686,403.54055816469327 516,516" fill="#7d93f6" stroke="#000" stroke-width="1"/><polygon points="405.20516131491706,381.4840951469605 437.6715395881686,403.54055816469327 516,516" fill="#242cbe" stroke="#000" stroke-width="1"/><polygon points="354,516 377.2719139693967,460.3440047771958 516,516" fill="#fb7587" stroke="#000" stroke-width="1"/><polygon points="84.00000000000001,111.00000000000001 111.00000000000001,84.00000000000001 134.3264752112837,136.43279189967336" fill="#242cbe" stroke="#000" stroke-width="1"/><polygon points="84.00000000000001,111.00000000000001 110.48368230977603,165.30442036210115 111.00000000000001,84.00000000000001" fill="#242cbe" stroke="#000" stroke-width="1"/><polygon points="84.00000000000001,111.00000000000001 111.00000000000001,84.00000000000001 189.78597137964545,111.26740743981466" fill="#f4a7fd" stroke="#000" stroke-width="1"/><polygon points="84.00000000000001,111.00000000000001 111.00000000000001,84.00000000000001 192,84.00000000000001" fill="#fb7587" stroke="#000" stroke-width="1"/><polygon points="84.00000000000001,111.00000000000001 110.48368230977603,165.30442036210115 134.3264752112837,136.43279189967336" fill="#9149db" stroke="#000" stroke-width="1"/><polygon points="84.00000000000001,111.00000000000001 134.3264752112837,136.43279189967336 189.78597137964545,111.26740743981466" fill="#7d93f6" stroke="#000" stroke-width="1"/><polygon points="84.00000000000001,111.00000000000001 134.3264752112837,136.43279189967336 192,84.00000000000001" fill="#7a7ff2" stroke="#000" stroke-width="1"/><polygon points="84.00000000000001,111.00000000000001 110.48368230977603,165.30442036210115 189.78597137964545,111.26740743981466" fill="#242cbe" stroke="#000" stroke-width="1"/><polygon points="84.00000000000001,111.00000000000001 110.48368230977603,165.30442036210115 192,84.00000000000001" fill="#f4a7fd" stroke="#000" stroke-width="1"/><polygon points="84.00000000000001,111.00000000000001 189.78597137964545,111.26740743981466 192,84.00000000000001" fill="#242cbe" stroke="#000" stroke-width="1"/><polygon points="385.15541448993,165.14031698325337 407.5867659191404,195.54799406342573 410.1653016156314,111.58401532694239" fill="#fb7587" stroke="#000" stroke-width="1"/><polygon points="385.15541448993,165.14031698325337 407.5867659191404,195.54799406342573 431.23476009360854,112.29946599539915" fill="#9149db" stroke="#000" stroke-width="1"/><polygon points="385.15541448993,165.14031698325337 410.1653016156314,111.58401532694239 431.23476009360854,112.29946599539915" fill="#f4a7fd" stroke="#000" stroke-width="1"/><polygon points="271.3980221610264,328.90086064364266 297.7880452775746,329.93956755695785 322.6958045562147,352.8774411504978" fill="#fb7587" stroke="#000" stroke-width="1"/><polygon points="297.7880452775746,329.93956755695785 322.6958045562147,352.8774411504978 354.21648336357333,300.99595282800937" fill="#9149db" stroke="#000" stroke-width="1"/><polygon points="297.7880452775746,329.93956755695785 302.3713702513424,410.63805119370335 322.6958045562147,352.8774411504978" fill="#242cbe" stroke="#000" stroke-width="1"/><polygon points="297.7880452775746,329.93956755695785 322.6958045562147,352.8774411504978 379.1968698325727,328.55519920766716" fill="#9149db" stroke="#000" stroke-width="1"/><polygon points="250.09865678856968,410.2972680318793 297.7880452775746,329.93956755695785 322.6958045562147,352.8774411504978" fill="#f4a7fd" stroke="#000" stroke-width="1"/><polygon points="275.4985846662916,411.8021457957684 297.7880452775746,329.93956755695785 322.6958045562147,352.8774411504978" fill="#fb7587" stroke="#000" stroke-width="1"/><polygon points="271.3980221610264,328.90086064364266 322.6958045562147,352.8774411504978 354.21648336357333,300.99595282800937" fill="#604ced" stroke="#000" stroke-width="1"/><polygon points="250.09865678856968,410.2972680318793 271.3980221610264,328.90086064364266 322.6958045562147,352.8774411504978" fill="#f4a7fd" stroke="#000" stroke-width="1"/><polygon points="271.3980221610264,328.90086064364266 275.4985846662916,411.8021457957684 322.6958045562147,352.8774411504978" fill="#604ced" stroke="#000" stroke-width="1"/><polygon points="322.6958045562147,352.8774411504978 354.21648336357333,300.99595282800937 379.1968698325727,328.55519920766716" fill="#7d93f6" stroke="#000" stroke-width="1"/><polygon points="322.6958045562147,352.8774411504978 354.21648336357333,300.99595282800937 411.6073805877115,331.3892445586322" fill="#604ced" stroke="#000" stroke-width="1"/><polygon points="250.09865678856968,410.2972680318793 302.3713702513424,410.63805119370335 322.6958045562147,352.8774411504978" fill="#7d93f6" stroke="#000" stroke-width="1"/><polygon points="275.4985846662916,411.8021457957684 302.3713702513424,410.63805119370335 322.6958045562147,352.8774411504978" fill="#604ced" stroke="#000" stroke-width="1"/><polygon points="322.6958045562147,352.8774411504978 379.1968698325727,328.55519920766716 411.6073805877115,331.3892445586322" fill="#f4a7fd" stroke="#000" stroke-width="1"/><polygon points="250.09865678856968,410.2972680318793 275.4985846662916,411.8021457957684 322.6958045562147,352.8774411504978" fill="#604ced" stroke="#000" stroke-width="1"/><polygon points="488.0773173599203,114.33490694766088 489.61410443430304,192.73149394814757 516,138" fill="#7a7ff2" stroke="#000" stroke-width="1"/><polygon points="431.23476009360854,112.29946599539915 488.0773173599203,114.33490694766088 516,138" fill="#604ced" stroke="#000" stroke-width="1"/><polygon points="410.1653016156314,111.58401532694239 488.0773173599203,114.33490694766088 516,138" fill="#9149db" stroke="#000" stroke-width="1"/><polygon points="484.36332203628945,217.76573651390927 489.61410443430304,192.73149394814757 516,138" fill="#242cbe" stroke="#000" stroke-width="1"/><polygon points="431.23476009360854,112.29946599539915 489.61410443430304,192.73149394814757 516,138" fill="#7d93f6" stroke="#000" stroke-width="1"/><polygon points="489.61410443430304,192.73149394814757 516,138 516,246" fill="#7d93f6" stroke="#000" stroke-width="1"/><polygon points="485.8840066441261,246.54560329833996 489.61410443430304,192.73149394814757 516,138" fill="#7d93f6" stroke="#000" stroke-width="1"/><polygon points="484.36332203628945,217.76573651390927 516,138 516,246" fill="#fb7587" stroke="#000" stroke-width="1"/><polygon points="484.36332203628945,217.76573651390927 485.8840066441261,246.54560329833996 516,138" fill="#f4a7fd" stroke="#000" stroke-width="1"/><polygon points="410.1653016156314,111.58401532694239 431.23476009360854,112.29946599539915 516,138" fill="#9149db" stroke="#000" stroke-width="1"/><polygon points="485.8840066441261,246.54560329833996 516,138 516,246" fill="#9149db" stroke="#000" stroke-width="1"/><polygon points="299.0383488194796,194.46206499841833 324.0742597383349,245.07416277402703 325.30939019998516,194.8949324409072" fill="#242cbe" stroke="#000" stroke-width="1"/><polygon points="277.35858031476874,223.67204894213828 299.0383488194796,194.46206499841833 325.30939019998516,194.8949324409072" fill="#9149db" stroke="#000" stroke-width="1"/><polygon points="243.39323123731074,196.1672485752399 299.0383488194796,194.46206499841833 325.30939019998516,194.8949324409072" fill="#242cbe" stroke="#000" stroke-width="1"/><polygon points="277.35858031476874,223.67204894213828 324.0742597383349,245.07416277402703 325.30939019998516,194.8949324409072" fill="#7a7ff2" stroke="#000" stroke-width="1"/><polygon points="243.39323123731074,196.1672485752399 324.0742597383349,245.07416277402703 325.30939019998516,194.8949324409072" fill="#7a7ff2" stroke="#000" stroke-width="1"/><polygon points="243.39323123731074,196.1672485752399 277.35858031476874,223.67204894213828 325.30939019998516,194.8949324409072" fill="#7d93f6" stroke="#000" stroke-width="1"/><polygon points="484.36332203628945,217.76573651390927 485.8840066441261,246.54560329833996 489.61410443430304,192.73149394814757" fill="#fb7587" stroke="#000" stroke-width="1"/><polygon points="484.36332203628945,217.76573651390927 489.61410443430304,192.73149394814757 516,246" fill="#7a7ff2" stroke="#000" stroke-width="1"/><polygon points="407.5867659191404,195.54799406342573 484.36332203628945,217.76573651390927 489.61410443430304,192.73149394814757" fill="#242cbe" stroke="#000" stroke-width="1"/><polygon points="462.31150290642006,275.7542947259886 484.36332203628945,217.76573651390927 489.61410443430304,192.73149394814757" fill="#9149db" stroke="#000" stroke-width="1"/><polygon points="484.36332203628945,217.76573651390927 489.61410443430304,192.73149394814757 493.2990996296053,269.1439668395843" fill="#f4a7fd" stroke="#000" stroke-width="1"/><polygon points="484.36332203628945,217.76573651390927 485.8840066441261,246.54560329833996 516,246" fill="#f4a7fd" stroke="#000" stroke-width="1"/><polygon points="462.31150290642006,275.7542947259886 484.36332203628945,217.76573651390927 485.8840066441261,246.54560329833996" fill="#7d93f6" stroke="#000" stroke-width="1"/><polygon points="484.36332203628945,217.76573651390927 485.8840066441261,246.54560329833996 493.2990996296053,269.1439668395843" fill="#9149db" stroke="#000" stroke-width="1"/><polygon points="407.5867659191404,195.54799406342573 484.36332203628945,217.76573651390927 516,246" fill="#7d93f6" stroke="#000" stroke-width="1"/><polygon points="462.31150290642006,275.7542947259886 484.36332203628945,217.76573651390927 516,246" fill="#604ced" stroke="#000" stroke-width="1"/><polygon points="484.36332203628945,217.76573651390927 493.2990996296053,269.1439668395843 516,246" fill="#604ced" stroke="#000" stroke-width="1"/><polygon points="462.31150290642006,275.7542947259886 484.36332203628945,217.76573651390927 493.2990996296053,269.1439668395843" fill="#7d93f6" stroke="#000" stroke-width="1"/><polygon points="379.1968698325727,328.55519920766716 411.6073805877115,331.3892445586322 433.3798529300327,329.8634181507731" fill="#604ced" stroke="#000" stroke-width="1"/><polygon points="405.20516131491706,381.4840951469605 411.6073805877115,331.3892445586322 433.3798529300327,329.8634181507731" fill="#7a7ff2" stroke="#000" stroke-width="1"/><polygon points="411.6073805877115,331.3892445586322 433.3798529300327,329.8634181507731 462.31150290642006,275.7542947259886" fill="#7a7ff2" stroke="#000" stroke-width="1"/><polygon points="411.6073805877115,331.3892445586322 433.3798529300327,329.8634181507731 437.6715395881686,403.54055816469327" fill="#242cbe" stroke="#000" stroke-width="1"/><polygon points="379.8621634717881,271.80120642636007 411.6073805877115,331.3892445586322 433.3798529300327,329.8634181507731" fill="#7a7ff2" stroke="#000" stroke-width="1"/><polygon points="379.1968698325727,328.55519920766716 405.20516131491706,381.4840951469605 433.3798529300327,329.8634181507731" fill="#fb7587" stroke="#000" stroke-width="1"/><polygon points="379.1968698325727,328.55519920766716 433.3798529300327,329.8634181507731 462.31150290642006,275.7542947259886" fill="#604ced" stroke="#000" stroke-width="1"/><polygon points="379.1968698325727,328.55519920766716 433.3798529300327,329.8634181507731 437.6715395881686,403.54055816469327" fill="#242cbe" stroke="#000" stroke-width="1"/><polygon points="379.1968698325727,328.55519920766716 379.8621634717881,271.80120642636007 433.3798529300327,329.8634181507731" fill="#604ced" stroke="#000" stroke-width="1"/><polygon points="405.20516131491706,381.4840951469605 433.3798529300327,329.8634181507731 437.6715395881686,403.54055816469327" fill="#604ced" stroke="#000" stroke-width="1"/><polygon points="433.3798529300327,329.8634181507731 462.31150290642006,275.7542947259886 516,246" fill="#7a7ff2" stroke="#000" stroke-width="1"/><polygon points="379.8621634717881,271.80120642636007 433.3798529300327,329.8634181507731 462.31150290642006,275.7542947259886" fill="#9149db" stroke="#000" stroke-width="1"/><polygon points="485.8840066441261,246.54560329833996 489.61410443430304,192.73149394814757 516,246" fill="#7d93f6" stroke="#000" stroke-width="1"/><polygon points="485.8840066441261,246.54560329833996 489.61410443430304,192.73149394814757 493.2990996296053,269.1439668395843" fill="#f4a7fd" stroke="#000" stroke-width="1"/><polygon points="462.31150290642006,275.7542947259886 485.8840066441261,246.54560329833996 489.61410443430304,192.73149394814757" fill="#7a7ff2" stroke="#000" stroke-width="1"/><polygon points="489.61410443430304,192.73149394814757 493.2990996296053,269.1439668395843 516,246" fill="#7a7ff2" stroke="#000" stroke-width="1"/><polygon points="407.5867659191404,195.54799406342573 489.61410443430304,192.73149394814757 516,246" fill="#7d93f6" stroke="#000" stroke-width="1"/><polygon points="462.31150290642006,275.7542947259886 489.61410443430304,192.73149394814757 516,246" fill="#7a7ff2" stroke="#000" stroke-width="1"/><polygon points="462.31150290642006,275.7542947259886 489.61410443430304,192.73149394814757 493.2990996296053,269.1439668395843" fill="#7a7ff2" stroke="#000" stroke-width="1"/><polygon points="431.23476009360854,112.29946599539915 488.0773173599203,114.33490694766088 489.61410443430304,192.73149394814757" fill="#9149db" stroke="#000" stroke-width="1"/><polygon points="407.5867659191404,195.54799406342573 431.23476009360854,112.29946599539915 489.61410443430304,192.73149394814757" fill="#7d93f6" stroke="#000" stroke-width="1"/><polygon points="379.1968698325727,328.55519920766716 405.20516131491706,381.4840951469605 411.6073805877115,331.3892445586322" fill="#fb7587" stroke="#000" stroke-width="1"/><polygon points="354.21648336357333,300.99595282800937 379.1968698325727,328.55519920766716 411.6073805877115,331.3892445586322" fill="#f4a7fd" stroke="#000" stroke-width="1"/><polygon points="379.1968698325727,328.55519920766716 379.8621634717881,271.80120642636007 411.6073805877115,331.3892445586322" fill="#604ced" stroke="#000" stroke-width="1"/><polygon points="379.1968698325727,328.55519920766716 411.6073805877115,331.3892445586322 462.31150290642006,275.7542947259886" fill="#f4a7fd" stroke="#000" stroke-width="1"/><polygon points="379.1968698325727,328.55519920766716 411.6073805877115,331.3892445586322 437.6715395881686,403.54055816469327" fill="#604ced" stroke="#000" stroke-width="1"/><polygon points="405.20516131491706,381.4840951469605 411.6073805877115,331.3892445586322 437.6715395881686,403.54055816469327" fill="#7a7ff2" stroke="#000" stroke-width="1"/><polygon points="354.21648336357333,300.99595282800937 379.8621634717881,271.80120642636007 411.6073805877115,331.3892445586322" fill="#7d93f6" stroke="#000" stroke-width="1"/><polygon points="379.8621634717881,271.80120642636007 411.6073805877115,331.3892445586322 462.31150290642006,275.7542947259886" fill="#604ced" stroke="#000" stroke-width="1"/><polygon points="106.6022095755396,431.77104447781664 110.79619901917599,412.2681965356101 111.7963752483378,382.7254599694967" fill="#fb7587" stroke="#000" stroke-width="1"/><polygon points="106.6022095755396,431.77104447781664 110.79619901917599,412.2681965356101 142.11043078324158,379.17154699080237" fill="#9149db" stroke="#000" stroke-width="1"/><polygon points="106.6022095755396,431.77104447781664 110.79619901917599,412.2681965356101 190.98966269812183,409.7244572288131" fill="#f4a7fd" stroke="#000" stroke-width="1"/><polygon points="110.79619901917599,412.2681965356101 111.7963752483378,382.7254599694967 142.11043078324158,379.17154699080237" fill="#604ced" stroke="#000" stroke-width="1"/><polygon points="110.79619901917599,412.2681965356101 111.7963752483378,382.7254599694967 190.98966269812183,409.7244572288131" fill="#604ced" stroke="#000" stroke-width="1"/><polygon points="110.79619901917599,412.2681965356101 111.7963752483378,382.7254599694967 187.35378538390225,352.23817689348874" fill="#242cbe" stroke="#000" stroke-width="1"/><polygon points="110.79619901917599,412.2681965356101 142.11043078324158,379.17154699080237 190.98966269812183,409.7244572288131" fill="#fb7587" stroke="#000" stroke-width="1"/><polygon points="110.79619901917599,412.2681965356101 142.11043078324158,379.17154699080237 187.35378538390225,352.23817689348874" fill="#fb7587" stroke="#000" stroke-width="1"/><polygon points="110.79619901917599,412.2681965356101 187.35378538390225,352.23817689348874 190.98966269812183,409.7244572288131" fill="#f4a7fd" stroke="#000" stroke-width="1"/><polygon points="110.79619901917599,412.2681965356101 190.98966269812183,409.7244572288131 250.09865678856968,410.2972680318793" fill="#604ced" stroke="#000" stroke-width="1"/><polygon points="110.79619901917599,412.2681965356101 187.35378538390225,352.23817689348874 250.09865678856968,410.2972680318793" fill="#604ced" stroke="#000" stroke-width="1"/><polygon points="354.21648336357333,300.99595282800937 379.1968698325727,328.55519920766716 379.8621634717881,271.80120642636007" fill="#7d93f6" stroke="#000" stroke-width="1"/><polygon points="297.7880452775746,329.93956755695785 354.21648336357333,300.99595282800937 379.1968698325727,328.55519920766716" fill="#7a7ff2" stroke="#000" stroke-width="1"/><polygon points="324.0742597383349,245.07416277402703 354.21648336357333,300.99595282800937 379.8621634717881,271.80120642636007" fill="#f4a7fd" stroke="#000" stroke-width="1"/><polygon points="297.7880452775746,329.93956755695785 324.0742597383349,245.07416277402703 354.21648336357333,300.99595282800937" fill="#9149db" stroke="#000" stroke-width="1"/><polygon points="271.3980221610264,328.90086064364266 297.7880452775746,329.93956755695785 354.21648336357333,300.99595282800937" fill="#7d93f6" stroke="#000" stroke-width="1"/><polygon points="110.48368230977603,165.30442036210115 111.00000000000001,84.00000000000001 138.84820860077488,219.72657095465578" fill="#604ced" stroke="#000" stroke-width="1"/><polygon points="138.84820860077488,219.72657095465578 195.68905829744335,270.14297990465735 220.3623918967469,216.15581985134884" fill="#f4a7fd" stroke="#000" stroke-width="1"/><polygon points="111.00000000000001,84.00000000000001 134.3264752112837,136.43279189967336 192,84.00000000000001" fill="#604ced" stroke="#000" stroke-width="1"/><polygon points="110.48368230977603,165.30442036210115 111.00000000000001,84.00000000000001 134.3264752112837,136.43279189967336" fill="#f4a7fd" stroke="#000" stroke-width="1"/><polygon points="111.00000000000001,84.00000000000001 134.3264752112837,136.43279189967336 189.78597137964545,111.26740743981466" fill="#f4a7fd" stroke="#000" stroke-width="1"/><polygon points="110.48368230977603,165.30442036210115 111.00000000000001,84.00000000000001 192,84.00000000000001" fill="#f4a7fd" stroke="#000" stroke-width="1"/><polygon points="111.00000000000001,84.00000000000001 189.78597137964545,111.26740743981466 192,84.00000000000001" fill="#7d93f6" stroke="#000" stroke-width="1"/><polygon points="111.00000000000001,84.00000000000001 192,84.00000000000001 219,84.00000000000001" fill="#f4a7fd" stroke="#000" stroke-width="1"/><polygon points="110.48368230977603,165.30442036210115 111.00000000000001,84.00000000000001 189.78597137964545,111.26740743981466" fill="#7d93f6" stroke="#000" stroke-width="1"/><polygon points="111.00000000000001,84.00000000000001 189.78597137964545,111.26740743981466 219,84.00000000000001" fill="#fb7587" stroke="#000" stroke-width="1"/><polygon points="111.00000000000001,84.00000000000001 189.78597137964545,111.26740743981466 273,84.00000000000001" fill="#7d93f6" stroke="#000" stroke-width="1"/><polygon points="111.00000000000001,84.00000000000001 219,84.00000000000001 273,84.00000000000001" fill="#7a7ff2" stroke="#000" stroke-width="1"/><polygon points="195.68905829744335,270.14297990465735 215.94612943967667,268.97233750344486 220.3623918967469,216.15581985134884" fill="#fb7587" stroke="#000" stroke-width="1"/><polygon points="187.35378538390225,352.23817689348874 195.68905829744335,270.14297990465735 215.94612943967667,268.97233750344486" fill="#242cbe" stroke="#000" stroke-width="1"/><polygon points="195.68905829744335,270.14297990465735 215.94612943967667,268.97233750344486 243.39323123731074,196.1672485752399" fill="#7d93f6" stroke="#000" stroke-width="1"/><polygon points="195.68905829744335,270.14297990465735 220.3623918967469,216.15581985134884 243.39323123731074,196.1672485752399" fill="#f4a7fd" stroke="#000" stroke-width="1"/><polygon points="379.1968698325727,328.55519920766716 379.8621634717881,271.80120642636007 462.31150290642006,275.7542947259886" fill="#fb7587" stroke="#000" stroke-width="1"/><polygon points="379.1968698325727,328.55519920766716 405.20516131491706,381.4840951469605 437.6715395881686,403.54055816469327" fill="#7a7ff2" stroke="#000" stroke-width="1"/><polygon points="189.78597137964545,111.26740743981466 192,84.00000000000001 219,84.00000000000001" fill="#604ced" stroke="#000" stroke-width="1"/><polygon points="192,84.00000000000001 219,84.00000000000001 300,84.00000000000001" fill="#f4a7fd" stroke="#000" stroke-width="1"/><polygon points="192,84.00000000000001 219,84.00000000000001 273.36439500598436,106.29168226152973" fill="#f4a7fd" stroke="#000" stroke-width="1"/><polygon points="134.3264752112837,136.43279189967336 189.78597137964545,111.26740743981466 192,84.00000000000001" fill="#7a7ff2" stroke="#000" stroke-width="1"/><polygon points="110.48368230977603,165.30442036210115 189.78597137964545,111.26740743981466 192,84.00000000000001" fill="#f4a7fd" stroke="#000" stroke-width="1"/><polygon points="189.78597137964545,111.26740743981466 192,84.00000000000001 300,84.00000000000001" fill="#7a7ff2" stroke="#000" stroke-width="1"/><polygon points="189.78597137964545,111.26740743981466 192,84.00000000000001 273.36439500598436,106.29168226152973" fill="#7d93f6" stroke="#000" stroke-width="1"/><polygon points="110.48368230977603,165.30442036210115 134.3264752112837,136.43279189967336 192,84.00000000000001" fill="#604ced" stroke="#000" stroke-width="1"/><polygon points="192,84.00000000000001 273.36439500598436,106.29168226152973 300,84.00000000000001" fill="#fb7587" stroke="#000" stroke-width="1"/><polygon points="250.09865678856968,410.2972680318793 275.4985846662916,411.8021457957684 302.3713702513424,410.63805119370335" fill="#7a7ff2" stroke="#000" stroke-width="1"/><polygon points="275.4985846662916,411.8021457957684 302.3713702513424,410.63805119370335 354,516" fill="#7d93f6" stroke="#000" stroke-width="1"/><polygon points="275.4985846662916,411.8021457957684 297.7880452775746,329.93956755695785 302.3713702513424,410.63805119370335" fill="#f4a7fd" stroke="#000" stroke-width="1"/><polygon points="250.09865678856968,410.2972680318793 297.7880452775746,329.93956755695785 302.3713702513424,410.63805119370335" fill="#9149db" stroke="#000" stroke-width="1"/><polygon points="302.3713702513424,410.63805119370335 327.8890976669751,485.5846583154615 349.70182945873523,458.7286272879097" fill="#242cbe" stroke="#000" stroke-width="1"/><polygon points="302.3713702513424,410.63805119370335 349.70182945873523,458.7286272879097 354,516" fill="#604ced" stroke="#000" stroke-width="1"/><polygon points="302.3713702513424,410.63805119370335 327.8890976669751,485.5846583154615 354,516" fill="#9149db" stroke="#000" stroke-width="1"/><polygon points="246,516 327.8890976669751,485.5846583154615 354,516" fill="#242cbe" stroke="#000" stroke-width="1"/><polygon points="246,516 250.09865678856968,410.2972680318793 275.4985846662916,411.8021457957684" fill="#7d93f6" stroke="#000" stroke-width="1"/><polygon points="246,516 275.4985846662916,411.8021457957684 354,516" fill="#7d93f6" stroke="#000" stroke-width="1"/><polygon points="327.8890976669751,485.5846583154615 349.70182945873523,458.7286272879097 377.2719139693967,460.3440047771958" fill="#7d93f6" stroke="#000" stroke-width="1"/><polygon points="349.70182945873523,458.7286272879097 354,516 377.2719139693967,460.3440047771958" fill="#7a7ff2" stroke="#000" stroke-width="1"/><polygon points="349.70182945873523,458.7286272879097 377.2719139693967,460.3440047771958 410.4101764940479,431.9521405709828" fill="#7d93f6" stroke="#000" stroke-width="1"/><polygon points="349.70182945873523,458.7286272879097 377.2719139693967,460.3440047771958 487.80079978644477,490.7502385254651" fill="#7a7ff2" stroke="#000" stroke-width="1"/><polygon points="349.70182945873523,458.7286272879097 377.2719139693967,460.3440047771958 411.1087778338375,492.35147540633" fill="#fb7587" stroke="#000" stroke-width="1"/><polygon points="327.8890976669751,485.5846583154615 349.70182945873523,458.7286272879097 354,516" fill="#7d93f6" stroke="#000" stroke-width="1"/><polygon points="327.8890976669751,485.5846583154615 349.70182945873523,458.7286272879097 410.4101764940479,431.9521405709828" fill="#f4a7fd" stroke="#000" stroke-width="1"/><polygon points="349.70182945873523,458.7286272879097 354,516 410.4101764940479,431.9521405709828" fill="#242cbe" stroke="#000" stroke-width="1"/><polygon points="349.70182945873523,458.7286272879097 354,516 487.80079978644477,490.7502385254651" fill="#9149db" stroke="#000" stroke-width="1"/><polygon points="349.70182945873523,458.7286272879097 354,516 411.1087778338375,492.35147540633" fill="#9149db" stroke="#000" stroke-width="1"/><polygon points="349.70182945873523,458.7286272879097 410.4101764940479,431.9521405709828 487.80079978644477,490.7502385254651" fill="#fb7587" stroke="#000" stroke-width="1"/><polygon points="349.70182945873523,458.7286272879097 410.4101764940479,431.9521405709828 411.1087778338375,492.35147540633" fill="#f4a7fd" stroke="#000" stroke-width="1"/><polygon points="349.70182945873523,458.7286272879097 411.1087778338375,492.35147540633 487.80079978644477,490.7502385254651" fill="#fb7587" stroke="#000" stroke-width="1"/><polygon points="410.4101764940479,431.9521405709828 411.1087778338375,492.35147540633 487.80079978644477,490.7502385254651" fill="#f4a7fd" stroke="#000" stroke-width="1"/><polygon points="411.1087778338375,492.35147540633 437.6715395881686,403.54055816469327 487.80079978644477,490.7502385254651" fill="#604ced" stroke="#000" stroke-width="1"/><polygon points="377.2719139693967,460.3440047771958 411.1087778338375,492.35147540633 487.80079978644477,490.7502385254651" fill="#fb7587" stroke="#000" stroke-width="1"/><polygon points="354,516 411.1087778338375,492.35147540633 487.80079978644477,490.7502385254651" fill="#242cbe" stroke="#000" stroke-width="1"/><polygon points="410.4101764940479,431.9521405709828 437.6715395881686,403.54055816469327 487.80079978644477,490.7502385254651" fill="#7d93f6" stroke="#000" stroke-width="1"/><polygon points="377.2719139693967,460.3440047771958 410.4101764940479,431.9521405709828 487.80079978644477,490.7502385254651" fill="#f4a7fd" stroke="#000" stroke-width="1"/><polygon points="354,516 410.4101764940479,431.9521405709828 487.80079978644477,490.7502385254651" fill="#604ced" stroke="#000" stroke-width="1"/><polygon points="405.20516131491706,381.4840951469605 410.4101764940479,431.9521405709828 487.80079978644477,490.7502385254651" fill="#242cbe" stroke="#000" stroke-width="1"/><polygon points="377.2719139693967,460.3440047771958 437.6715395881686,403.54055816469327 487.80079978644477,490.7502385254651" fill="#9149db" stroke="#000" stroke-width="1"/><polygon points="405.20516131491706,381.4840951469605 437.6715395881686,403.54055816469327 487.80079978644477,490.7502385254651" fill="#7d93f6" stroke="#000" stroke-width="1"/><polygon points="354,516 377.2719139693967,460.3440047771958 487.80079978644477,490.7502385254651" fill="#fb7587" stroke="#000" stroke-width="1"/><polygon points="243.39323123731074,196.1672485752399 277.35858031476874,223.67204894213828 299.0383488194796,194.46206499841833" fill="#7a7ff2" stroke="#000" stroke-width="1"/><polygon points="277.35858031476874,223.67204894213828 299.0383488194796,194.46206499841833 324.0742597383349,245.07416277402703" fill="#7d93f6" stroke="#000" stroke-width="1"/><polygon points="243.39323123731074,196.1672485752399 299.0383488194796,194.46206499841833 324.0742597383349,245.07416277402703" fill="#f4a7fd" stroke="#000" stroke-width="1"/><polygon points="243.39323123731074,196.1672485752399 273.36439500598436,106.29168226152973 299.0383488194796,194.46206499841833" fill="#242cbe" stroke="#000" stroke-width="1"/><polygon points="273.36439500598436,106.29168226152973 299.0383488194796,194.46206499841833 300,84.00000000000001" fill="#f4a7fd" stroke="#000" stroke-width="1"/><polygon points="407.5867659191404,195.54799406342573 410.1653016156314,111.58401532694239 431.23476009360854,112.29946599539915" fill="#f4a7fd" stroke="#000" stroke-width="1"/><polygon points="462.31150290642006,275.7542947259886 485.8840066441261,246.54560329833996 493.2990996296053,269.1439668395843" fill="#7a7ff2" stroke="#000" stroke-width="1"/><polygon points="462.31150290642006,275.7542947259886 493.2990996296053,269.1439668395843 516,246" fill="#f4a7fd" stroke="#000" stroke-width="1"/><polygon points="462.31150290642006,275.7542947259886 485.8840066441261,246.54560329833996 516,246" fill="#7a7ff2" stroke="#000" stroke-width="1"/><polygon points="485.8840066441261,246.54560329833996 493.2990996296053,269.1439668395843 516,246" fill="#f4a7fd" stroke="#000" stroke-width="1"/><polygon points="190.98966269812183,409.7244572288131 250.09865678856968,410.2972680318793 275.4985846662916,411.8021457957684" fill="#242cbe" stroke="#000" stroke-width="1"/><polygon points="250.09865678856968,410.2972680318793 271.3980221610264,328.90086064364266 275.4985846662916,411.8021457957684" fill="#9149db" stroke="#000" stroke-width="1"/><polygon points="187.35378538390225,352.23817689348874 250.09865678856968,410.2972680318793 275.4985846662916,411.8021457957684" fill="#7a7ff2" stroke="#000" stroke-width="1"/><polygon points="250.09865678856968,410.2972680318793 275.4985846662916,411.8021457957684 297.7880452775746,329.93956755695785" fill="#f4a7fd" stroke="#000" stroke-width="1"/><polygon points="187.35378538390225,352.23817689348874 190.98966269812183,409.7244572288131 250.09865678856968,410.2972680318793" fill="#fb7587" stroke="#000" stroke-width="1"/><polygon points="187.35378538390225,352.23817689348874 250.09865678856968,410.2972680318793 271.3980221610264,328.90086064364266" fill="#604ced" stroke="#000" stroke-width="1"/><polygon points="250.09865678856968,410.2972680318793 271.3980221610264,328.90086064364266 297.7880452775746,329.93956755695785" fill="#9149db" stroke="#000" stroke-width="1"/><polygon points="273,84.00000000000001 273.36439500598436,106.29168226152973 300,84.00000000000001" fill="#242cbe" stroke="#000" stroke-width="1"/><polygon points="273,84.00000000000001 273.36439500598436,106.29168226152973 295.3754260458185,107.7974898477983" fill="#9149db" stroke="#000" stroke-width="1"/><polygon points="219,84.00000000000001 273,84.00000000000001 273.36439500598436,106.29168226152973" fill="#604ced" stroke="#000" stroke-width="1"/><polygon points="189.78597137964545,111.26740743981466 273,84.00000000000001 273.36439500598436,106.29168226152973" fill="#242cbe" stroke="#000" stroke-width="1"/><polygon points="273,84.00000000000001 295.3754260458185,107.7974898477983 300,84.00000000000001" fill="#7d93f6" stroke="#000" stroke-width="1"/><polygon points="219,84.00000000000001 273,84.00000000000001 300,84.00000000000001" fill="#7d93f6" stroke="#000" stroke-width="1"/><polygon points="189.78597137964545,111.26740743981466 273,84.00000000000001 300,84.00000000000001" fill="#f4a7fd" stroke="#000" stroke-width="1"/><polygon points="219,84.00000000000001 273,84.00000000000001 295.3754260458185,107.7974898477983" fill="#9149db" stroke="#000" stroke-width="1"/><polygon points="189.78597137964545,111.26740743981466 219,84.00000000000001 273,84.00000000000001" fill="#9149db" stroke="#000" stroke-width="1"/><polygon points="142.11043078324158,379.17154699080237 187.35378538390225,352.23817689348874 190.98966269812183,409.7244572288131" fill="#7a7ff2" stroke="#000" stroke-width="1"/><polygon points="111.7963752483378,382.7254599694967 142.11043078324158,379.17154699080237 187.35378538390225,352.23817689348874" fill="#7d93f6" stroke="#000" stroke-width="1"/><polygon points="111.7963752483378,382.7254599694967 187.35378538390225,352.23817689348874 190.98966269812183,409.7244572288131" fill="#7d93f6" stroke="#000" stroke-width="1"/><polygon points="187.35378538390225,352.23817689348874 190.98966269812183,409.7244572288131 275.4985846662916,411.8021457957684" fill="#fb7587" stroke="#000" stroke-width="1"/><polygon points="187.35378538390225,352.23817689348874 215.94612943967667,268.97233750344486 271.3980221610264,328.90086064364266" fill="#9149db" stroke="#000" stroke-width="1"/><polygon points="187.35378538390225,352.23817689348874 271.3980221610264,328.90086064364266 275.4985846662916,411.8021457957684" fill="#fb7587" stroke="#000" stroke-width="1"/><polygon points="106.6022095755396,431.77104447781664 111.7963752483378,382.7254599694967 142.11043078324158,379.17154699080237" fill="#f4a7fd" stroke="#000" stroke-width="1"/><polygon points="111.7963752483378,382.7254599694967 142.11043078324158,379.17154699080237 190.98966269812183,409.7244572288131" fill="#fb7587" stroke="#000" stroke-width="1"/><polygon points="106.6022095755396,431.77104447781664 111.7963752483378,382.7254599694967 190.98966269812183,409.7244572288131" fill="#9149db" stroke="#000" stroke-width="1"/><polygon points="377.2719139693967,460.3440047771958 410.4101764940479,431.9521405709828 411.1087778338375,492.35147540633" fill="#9149db" stroke="#000" stroke-width="1"/><polygon points="327.8890976669751,485.5846583154615 377.2719139693967,460.3440047771958 410.4101764940479,431.9521405709828" fill="#9149db" stroke="#000" stroke-width="1"/><polygon points="354,516 377.2719139693967,460.3440047771958 410.4101764940479,431.9521405709828" fill="#f4a7fd" stroke="#000" stroke-width="1"/><polygon points="377.2719139693967,460.3440047771958 410.4101764940479,431.9521405709828 437.6715395881686,403.54055816469327" fill="#7a7ff2" stroke="#000" stroke-width="1"/><polygon points="354,516 377.2719139693967,460.3440047771958 411.1087778338375,492.35147540633" fill="#9149db" stroke="#000" stroke-width="1"/><polygon points="377.2719139693967,460.3440047771958 411.1087778338375,492.35147540633 437.6715395881686,403.54055816469327" fill="#fb7587" stroke="#000" stroke-width="1"/><polygon points="327.8890976669751,485.5846583154615 354,516 377.2719139693967,460.3440047771958" fill="#242cbe" stroke="#000" stroke-width="1"/><polygon points="106.6022095755396,431.77104447781664 142.11043078324158,379.17154699080237 190.98966269812183,409.7244572288131" fill="#7a7ff2" stroke="#000" stroke-width="1"/><polygon points="405.20516131491706,381.4840951469605 410.4101764940479,431.9521405709828 437.6715395881686,403.54055816469327" fill="#7a7ff2" stroke="#000" stroke-width="1"/><polygon points="410.4101764940479,431.9521405709828 411.1087778338375,492.35147540633 437.6715395881686,403.54055816469327" fill="#7d93f6" stroke="#000" stroke-width="1"/><polygon points="354,516 410.4101764940479,431.9521405709828 411.1087778338375,492.35147540633" fill="#604ced" stroke="#000" stroke-width="1"/><polygon points="327.8890976669751,485.5846583154615 354,516 410.4101764940479,431.9521405709828" fill="#7a7ff2" stroke="#000" stroke-width="1"/><polygon points="110.48368230977603,165.30442036210115 134.3264752112837,136.43279189967336 189.78597137964545,111.26740743981466" fill="#f4a7fd" stroke="#000" stroke-width="1"/><polygon points="273.36439500598436,106.29168226152973 295.3754260458185,107.7974898477983 300,84.00000000000001" fill="#fb7587" stroke="#000" stroke-width="1"/><polygon points="219,84.00000000000001 295.3754260458185,107.7974898477983 300,84.00000000000001" fill="#fb7587" stroke="#000" stroke-width="1"/><polygon points="219,84.00000000000001 273.36439500598436,106.29168226152973 300,84.00000000000001" fill="#604ced" stroke="#000" stroke-width="1"/><polygon points="189.78597137964545,111.26740743981466 273.36439500598436,106.29168226152973 300,84.00000000000001" fill="#f4a7fd" stroke="#000" stroke-width="1"/><polygon points="189.78597137964545,111.26740743981466 219,84.00000000000001 300,84.00000000000001" fill="#7d93f6" stroke="#000" stroke-width="1"/><polygon points="271.3980221610264,328.90086064364266 275.4985846662916,411.8021457957684 297.7880452775746,329.93956755695785" fill="#9149db" stroke="#000" stroke-width="1"/><polygon points="410.1653016156314,111.58401532694239 431.23476009360854,112.29946599539915 488.0773173599203,114.33490694766088" fill="#9149db" stroke="#000" stroke-width="1"/><polygon points="189.78597137964545,111.26740743981466 219,84.00000000000001 273.36439500598436,106.29168226152973" fill="#604ced" stroke="#000" stroke-width="1"/><polygon points="243.39323123731074,196.1672485752399 277.35858031476874,223.67204894213828 324.0742597383349,245.07416277402703" fill="#fb7587" stroke="#000" stroke-width="1"/><polygon points="220.3623918967469,216.15581985134884 243.39323123731074,196.1672485752399 277.35858031476874,223.67204894213828" fill="#242cbe" stroke="#000" stroke-width="1"/><polygon points="215.94612943967667,268.97233750344486 220.3623918967469,216.15581985134884 243.39323123731074,196.1672485752399" fill="#7d93f6" stroke="#000" stroke-width="1"/><polygon points="215.94612943967667,268.97233750344486 243.39323123731074,196.1672485752399 277.35858031476874,223.67204894213828" fill="#242cbe" stroke="#000" stroke-width="1"/><polygon points="215.94612943967667,268.97233750344486 220.3623918967469,216.15581985134884 277.35858031476874,223.67204894213828" fill="#604ced" stroke="#000" stroke-width="1"/><polygon points="219,84.00000000000001 273.36439500598436,106.29168226152973 295.3754260458185,107.7974898477983" fill="#9149db" stroke="#000" stroke-width="1"/></svg>