<svg xmlns="http://www.w3.org/2000/svg" width="600" height="600">
                <rect width="100%" height="100%" fill="#000"/><polygon points="217.62583775953073,163.72257671765453 266.5954113233308,112.99403569300424 279.6263496026823,158.9861739980373" fill="#faa4af" stroke="#000" stroke-width="1"/><polygon points="166.66666666666669,60 266.5954113233308,112.99403569300424 279.6263496026823,158.9861739980373" fill="#7277cc" stroke="#000" stroke-width="1"/><polygon points="266.5954113233308,112.99403569300424 279.6263496026823,158.9861739980373 376.7017512149645,165.86910238795946" fill="#9a8eeb" stroke="#000" stroke-width="1"/><polygon points="266.5954113233308,112.99403569300424 279.6263496026823,158.9861739980373 486.6666666666667,60" fill="#9a8eeb" stroke="#000" stroke-width="1"/><polygon points="166.66666666666669,60 217.62583775953073,163.72257671765453 266.5954113233308,112.99403569300424" fill="#faa4af" stroke="#000" stroke-width="1"/><polygon points="166.66666666666669,60 266.5954113233308,112.99403569300424 486.6666666666667,60" fill="#abb8f5" stroke="#000" stroke-width="1"/><polygon points="266.5954113233308,112.99403569300424 376.7017512149645,165.86910238795946 486.6666666666667,60" fill="#b594d7" stroke="#000" stroke-width="1"/><polygon points="326.67739250636737,226.61431170619593 372.49763781593776,211.8961512883059 376.7017512149645,165.86910238795946" fill="#f7c4fd" stroke="#000" stroke-width="1"/><polygon points="279.6263496026823,158.9861739980373 326.67739250636737,226.61431170619593 372.49763781593776,211.8961512883059" fill="#abb8f5" stroke="#000" stroke-width="1"/><polygon points="326.67739250636737,226.61431170619593 372.49763781593776,211.8961512883059 432.1667592985073,165.12577236606617" fill="#7277cc" stroke="#000" stroke-width="1"/><polygon points="326.67739250636737,226.61431170619593 372.49763781593776,211.8961512883059 540,273.33333333333337" fill="#f7c4fd" stroke="#000" stroke-width="1"/><polygon points="279.6263496026823,158.9861739980373 326.67739250636737,226.61431170619593 376.7017512149645,165.86910238795946" fill="#7277cc" stroke="#000" stroke-width="1"/><polygon points="326.67739250636737,226.61431170619593 376.7017512149645,165.86910238795946 432.1667592985073,165.12577236606617" fill="#faa4af" stroke="#000" stroke-width="1"/><polygon points="326.67739250636737,226.61431170619593 376.7017512149645,165.86910238795946 540,273.33333333333337" fill="#7277cc" stroke="#000" stroke-width="1"/><polygon points="226.62310333635608,277.1107081975216 279.6263496026823,158.9861739980373 326.67739250636737,226.61431170619593" fill="#7277cc" stroke="#000" stroke-width="1"/><polygon points="279.6263496026823,158.9861739980373 326.67739250636737,226.61431170619593 432.1667592985073,165.12577236606617" fill="#faa4af" stroke="#000" stroke-width="1"/><polygon points="217.62583775953073,163.72257671765453 279.6263496026823,158.9861739980373 326.67739250636737,226.61431170619593" fill="#9a8eeb" stroke="#000" stroke-width="1"/><polygon points="217.62583775953073,163.72257671765453 226.62310333635608,277.1107081975216 326.67739250636737,226.61431170619593" fill="#faa4af" stroke="#000" stroke-width="1"/><polygon points="226.62310333635608,277.1107081975216 280.4416359739043,332.21621480929315 326.67739250636737,226.61431170619593" fill="#faa4af" stroke="#000" stroke-width="1"/><polygon points="326.67739250636737,226.61431170619593 432.1667592985073,165.12577236606617 540,273.33333333333337" fill="#abb8f5" stroke="#000" stroke-width="1"/><polygon points="115.11549405200529,278.95812725477 166.99620855827578,324.72088376921164 226.62310333635608,277.1107081975216" fill="#abaef1" stroke="#000" stroke-width="1"/><polygon points="115.11549405200529,278.95812725477 166.99620855827578,324.72088376921164 227.88458126398177,374.1006739676602" fill="#abb8f5" stroke="#000" stroke-width="1"/><polygon points="105.4838835495936,224.23647409246675 115.11549405200529,278.95812725477 166.99620855827578,324.72088376921164" fill="#faa4af" stroke="#000" stroke-width="1"/><polygon points="60,220 115.11549405200529,278.95812725477 166.99620855827578,324.72088376921164" fill="#abaef1" stroke="#000" stroke-width="1"/><polygon points="115.11549405200529,278.95812725477 115.63988925581204,481.51596833697175 166.99620855827578,324.72088376921164" fill="#9a8eeb" stroke="#000" stroke-width="1"/><polygon points="166.99620855827578,324.72088376921164 226.62310333635608,277.1107081975216 227.88458126398177,374.1006739676602" fill="#abb8f5" stroke="#000" stroke-width="1"/><polygon points="166.99620855827578,324.72088376921164 226.62310333635608,277.1107081975216 280.4416359739043,332.21621480929315" fill="#b594d7" stroke="#000" stroke-width="1"/><polygon points="105.4838835495936,224.23647409246675 166.99620855827578,324.72088376921164 226.62310333635608,277.1107081975216" fill="#abb8f5" stroke="#000" stroke-width="1"/><polygon points="166.99620855827578,324.72088376921164 227.88458126398177,374.1006739676602 280.4416359739043,332.21621480929315" fill="#7277cc" stroke="#000" stroke-width="1"/><polygon points="115.63988925581204,481.51596833697175 166.99620855827578,324.72088376921164 227.88458126398177,374.1006739676602" fill="#7277cc" stroke="#000" stroke-width="1"/><polygon points="166.99620855827578,324.72088376921164 168.43226658512376,483.48535491058124 227.88458126398177,374.1006739676602" fill="#faa4af" stroke="#000" stroke-width="1"/><polygon points="60,220 105.4838835495936,224.23647409246675 166.99620855827578,324.72088376921164" fill="#abaef1" stroke="#000" stroke-width="1"/><polygon points="60,220 115.63988925581204,481.51596833697175 166.99620855827578,324.72088376921164" fill="#abb8f5" stroke="#000" stroke-width="1"/><polygon points="115.63988925581204,481.51596833697175 166.99620855827578,324.72088376921164 168.43226658512376,483.48535491058124" fill="#abb8f5" stroke="#000" stroke-width="1"/><polygon points="372.49763781593776,211.8961512883059 376.7017512149645,165.86910238795946 432.1667592985073,165.12577236606617" fill="#abaef1" stroke="#000" stroke-width="1"/><polygon points="376.7017512149645,165.86910238795946 432.1667592985073,165.12577236606617 486.6666666666667,60" fill="#9a8eeb" stroke="#000" stroke-width="1"/><polygon points="279.6263496026823,158.9861739980373 376.7017512149645,165.86910238795946 432.1667592985073,165.12577236606617" fill="#7277cc" stroke="#000" stroke-width="1"/><polygon points="376.7017512149645,165.86910238795946 432.1667592985073,165.12577236606617 540,273.33333333333337" fill="#9a8eeb" stroke="#000" stroke-width="1"/><polygon points="372.49763781593776,211.8961512883059 432.1667592985073,165.12577236606617 486.6666666666667,60" fill="#7277cc" stroke="#000" stroke-width="1"/><polygon points="279.6263496026823,158.9861739980373 372.49763781593776,211.8961512883059 432.1667592985073,165.12577236606617" fill="#abb8f5" stroke="#000" stroke-width="1"/><polygon points="372.49763781593776,211.8961512883059 432.1667592985073,165.12577236606617 540,273.33333333333337" fill="#abb8f5" stroke="#000" stroke-width="1"/><polygon points="279.6263496026823,158.9861739980373 432.1667592985073,165.12577236606617 486.6666666666667,60" fill="#abb8f5" stroke="#000" stroke-width="1"/><polygon points="432.1667592985073,165.12577236606617 486.6666666666667,60 540,273.33333333333337" fill="#faa4af" stroke="#000" stroke-width="1"/><polygon points="432.1667592985073,165.12577236606617 481.7579416455443,325.74315731282627 540,273.33333333333337" fill="#9a8eeb" stroke="#000" stroke-width="1"/><polygon points="115.63988925581204,481.51596833697175 166.66666666666669,540 168.43226658512376,483.48535491058124" fill="#f7c4fd" stroke="#000" stroke-width="1"/><polygon points="115.63988925581204,481.51596833697175 168.43226658512376,483.48535491058124 227.88458126398177,374.1006739676602" fill="#abaef1" stroke="#000" stroke-width="1"/><polygon points="115.63988925581204,481.51596833697175 168.43226658512376,483.48535491058124 326.6666666666667,540" fill="#7277cc" stroke="#000" stroke-width="1"/><polygon points="115.63988925581204,481.51596833697175 166.66666666666669,540 326.6666666666667,540" fill="#7277cc" stroke="#000" stroke-width="1"/><polygon points="115.11549405200529,278.95812725477 115.63988925581204,481.51596833697175 227.88458126398177,374.1006739676602" fill="#abaef1" stroke="#000" stroke-width="1"/><polygon points="60,220 115.11549405200529,278.95812725477 115.63988925581204,481.51596833697175" fill="#abaef1" stroke="#000" stroke-width="1"/><polygon points="60,220 105.4838835495936,224.23647409246675 115.11549405200529,278.95812725477" fill="#9a8eeb" stroke="#000" stroke-width="1"/><polygon points="60,220 105.4838835495936,224.23647409246675 166.66666666666669,60" fill="#7277cc" stroke="#000" stroke-width="1"/><polygon points="105.4838835495936,224.23647409246675 115.11549405200529,278.95812725477 217.62583775953073,163.72257671765453" fill="#9a8eeb" stroke="#000" stroke-width="1"/><polygon points="105.4838835495936,224.23647409246675 115.11549405200529,278.95812725477 226.62310333635608,277.1107081975216" fill="#abaef1" stroke="#000" stroke-width="1"/><polygon points="105.4838835495936,224.23647409246675 115.11549405200529,278.95812725477 166.66666666666669,60" fill="#f7c4fd" stroke="#000" stroke-width="1"/><polygon points="105.4838835495936,224.23647409246675 217.62583775953073,163.72257671765453 226.62310333635608,277.1107081975216" fill="#abaef1" stroke="#000" stroke-width="1"/><polygon points="105.4838835495936,224.23647409246675 166.66666666666669,60 217.62583775953073,163.72257671765453" fill="#9a8eeb" stroke="#000" stroke-width="1"/><polygon points="105.4838835495936,224.23647409246675 166.66666666666669,60 226.62310333635608,277.1107081975216" fill="#7277cc" stroke="#000" stroke-width="1"/><polygon points="326.6666666666667,540 375.08371587891867,487.1468873335526 380,540" fill="#abaef1" stroke="#000" stroke-width="1"/><polygon points="375.08371587891867,487.1468873335526 375.23142039908583,439.5392447539337 380,540" fill="#f7c4fd" stroke="#000" stroke-width="1"/><polygon points="227.88458126398177,374.1006739676602 375.08371587891867,487.1468873335526 380,540" fill="#7277cc" stroke="#000" stroke-width="1"/><polygon points="375.08371587891867,487.1468873335526 380,540 540,380" fill="#7277cc" stroke="#000" stroke-width="1"/><polygon points="326.6666666666667,540 375.23142039908583,439.5392447539337 380,540" fill="#abaef1" stroke="#000" stroke-width="1"/><polygon points="166.66666666666669,540 326.6666666666667,540 380,540" fill="#f7c4fd" stroke="#000" stroke-width="1"/><polygon points="168.43226658512376,483.48535491058124 326.6666666666667,540 380,540" fill="#9a8eeb" stroke="#000" stroke-width="1"/><polygon points="227.88458126398177,374.1006739676602 375.23142039908583,439.5392447539337 380,540" fill="#abaef1" stroke="#000" stroke-width="1"/><polygon points="375.23142039908583,439.5392447539337 380,540 540,380" fill="#7277cc" stroke="#000" stroke-width="1"/><polygon points="166.66666666666669,540 168.43226658512376,483.48535491058124 380,540" fill="#faa4af" stroke="#000" stroke-width="1"/><polygon points="168.43226658512376,483.48535491058124 227.88458126398177,374.1006739676602 380,540" fill="#7277cc" stroke="#000" stroke-width="1"/><polygon points="217.62583775953073,163.72257671765453 226.62310333635608,277.1107081975216 279.6263496026823,158.9861739980373" fill="#faa4af" stroke="#000" stroke-width="1"/><polygon points="166.66666666666669,60 217.62583775953073,163.72257671765453 279.6263496026823,158.9861739980373" fill="#9a8eeb" stroke="#000" stroke-width="1"/><polygon points="166.66666666666669,60 217.62583775953073,163.72257671765453 226.62310333635608,277.1107081975216" fill="#abb8f5" stroke="#000" stroke-width="1"/><polygon points="115.11549405200529,278.95812725477 217.62583775953073,163.72257671765453 226.62310333635608,277.1107081975216" fill="#abb8f5" stroke="#000" stroke-width="1"/><polygon points="115.11549405200529,278.95812725477 166.66666666666669,60 217.62583775953073,163.72257671765453" fill="#abb8f5" stroke="#000" stroke-width="1"/><polygon points="166.66666666666669,540 168.43226658512376,483.48535491058124 326.6666666666667,540" fill="#faa4af" stroke="#000" stroke-width="1"/><polygon points="481.7579416455443,325.74315731282627 540,273.33333333333337 540,380" fill="#f7c4fd" stroke="#000" stroke-width="1"/><polygon points="372.49763781593776,211.8961512883059 376.7017512149645,165.86910238795946 540,273.33333333333337" fill="#b594d7" stroke="#000" stroke-width="1"/><polygon points="372.49763781593776,211.8961512883059 486.6666666666667,60 540,273.33333333333337" fill="#faa4af" stroke="#000" stroke-width="1"/><polygon points="376.7017512149645,165.86910238795946 486.6666666666667,60 540,273.33333333333337" fill="#abb8f5" stroke="#000" stroke-width="1"/><polygon points="166.66666666666669,60 226.62310333635608,277.1107081975216 279.6263496026823,158.9861739980373" fill="#b594d7" stroke="#000" stroke-width="1"/><polygon points="166.66666666666669,60 279.6263496026823,158.9861739980373 486.6666666666667,60" fill="#f7c4fd" stroke="#000" stroke-width="1"/><polygon points="60,220 115.11549405200529,278.95812725477 166.66666666666669,60" fill="#f7c4fd" stroke="#000" stroke-width="1"/><polygon points="115.11549405200529,278.95812725477 166.66666666666669,60 226.62310333635608,277.1107081975216" fill="#7277cc" stroke="#000" stroke-width="1"/><polygon points="375.23142039908583,439.5392447539337 481.7579416455443,325.74315731282627 540,380" fill="#7277cc" stroke="#000" stroke-width="1"/><polygon points="375.08371587891867,487.1468873335526 481.7579416455443,325.74315731282627 540,380" fill="#abaef1" stroke="#000" stroke-width="1"/><polygon points="375.08371587891867,487.1468873335526 375.23142039908583,439.5392447539337 481.7579416455443,325.74315731282627" fill="#7277cc" stroke="#000" stroke-width="1"/><polygon points="279.6263496026823,158.9861739980373 372.49763781593776,211.8961512883059 376.7017512149645,165.86910238795946" fill="#9a8eeb" stroke="#000" stroke-width="1"/><polygon points="372.49763781593776,211.8961512883059 376.7017512149645,165.86910238795946 486.6666666666667,60" fill="#abb8f5" stroke="#000" stroke-width="1"/><polygon points="279.6263496026823,158.9861739980373 376.7017512149645,165.86910238795946 486.6666666666667,60" fill="#abaef1" stroke="#000" stroke-width="1"/><polygon points="326.6666666666667,540 375.08371587891867,487.1468873335526 375.23142039908583,439.5392447539337" fill="#f7c4fd" stroke="#000" stroke-width="1"/><polygon points="280.4416359739043,332.21621480929315 375.08371587891867,487.1468873335526 375.23142039908583,439.5392447539337" fill="#abaef1" stroke="#000" stroke-width="1"/><polygon points="227.88458126398177,374.1006739676602 375.08371587891867,487.1468873335526 375.23142039908583,439.5392447539337" fill="#f7c4fd" stroke="#000" stroke-width="1"/><polygon points="375.08371587891867,487.1468873335526 375.23142039908583,439.5392447539337 540,380" fill="#f7c4fd" stroke="#000" stroke-width="1"/><polygon points="227.88458126398177,374.1006739676602 280.4416359739043,332.21621480929315 375.23142039908583,439.5392447539337" fill="#7277cc" stroke="#000" stroke-width="1"/><polygon points="227.88458126398177,374.1006739676602 280.4416359739043,332.21621480929315 375.08371587891867,487.1468873335526" fill="#b594d7" stroke="#000" stroke-width="1"/><polygon points="226.62310333635608,277.1107081975216 227.88458126398177,374.1006739676602 280.4416359739043,332.21621480929315" fill="#f7c4fd" stroke="#000" stroke-width="1"/><polygon points="115.11549405200529,278.95812725477 226.62310333635608,277.1107081975216 227.88458126398177,374.1006739676602" fill="#abb8f5" stroke="#000" stroke-width="1"/><polygon points="279.6263496026823,158.9861739980373 372.49763781593776,211.8961512883059 486.6666666666667,60" fill="#abb8f5" stroke="#000" stroke-width="1"/></svg>